<svg xmlns="http://www.w3.org/2000/svg" width="128.661" height="14.295" viewBox="0 0 128.661 14.295"><g transform="translate(-280.094 -527.001)"><path d="M0,.45V14.745H14.661V.45Zm.611.611H14.05V14.134H.611ZM4.144,8.544,3.66,10.368c-.01.051-.031.069-.09.069h-.9c-.061,0-.071-.021-.061-.092L4.347,4.278a1.808,1.808,0,0,0,.06-.5c0-.04.02-.061.051-.061h1.28c.04,0,.061.011.071.061l1.944,6.579c.01.05,0,.079-.051.079H6.694c-.05,0-.079-.018-.09-.059L6.1,8.543H4.146Zm1.714-.992c-.171-.676-.586-2.156-.737-2.871h-.01C4.981,5.4,4.65,6.6,4.4,7.552Zm3.274.626a1.224,1.224,0,0,0,1.33,1.381,2.359,2.359,0,0,0,1-.189c.041-.02.071-.009.071.041v.766a.133.133,0,0,1-.061.122,2.72,2.72,0,0,1-1.228.232c-1.613,0-2.217-1.189-2.217-2.52,0-1.442.746-2.621,2.057-2.621a1.825,1.825,0,0,1,1.794,2.026,2.978,2.978,0,0,1-.052.646.085.085,0,0,1-.081.078,8.618,8.618,0,0,1-1.018.04H9.132Zm1.24-.84a3.379,3.379,0,0,0,.453-.01c0-.042.01-.076.01-.106a.853.853,0,0,0-.8-.943c-.585,0-.837.514-.9,1.058h1.23Z" transform="translate(280.094 526.551)" fill="#181716"/><path d="M0,.45V14.745H14.661V.45Zm.611.611H14.05V14.134H.611ZM4.068,8.7,3.6,10.446c-.01.049-.03.084-.089.084H2.632c-.059,0-.069-.02-.059-.089l1.691-5.89a1.888,1.888,0,0,0,.059-.5c0-.04.02-.059.049-.059H5.622c.039,0,.059.01.069.059l1.9,6.4c.01.049,0,.079-.049.079H6.556a.09.09,0,0,1-.088-.073L5.976,8.7ZM5.73,7.72c-.167-.659-.561-2.095-.708-2.793h-.01c-.128.7-.443,1.869-.688,2.793Zm6.121,1.848c0,.068.01.275.029.61,0,.039,0,.059-.043.068a5.028,5.028,0,0,1-1.84.4A1.542,1.542,0,0,1,8.247,8.928V5.782c0-.049.02-.079.069-.079h.962c.049,0,.069.029.069.079V8.8c0,.58.254.895.863.895a1.664,1.664,0,0,0,.6-.108v-3.8c0-.049.02-.079.069-.079h.9c.059,0,.069.029.069.079V9.568Z" transform="translate(318.094 526.551)" fill="#181716"/><path d="M0,.45V14.745H14.661V.45Zm.611.611H14.05V14.134H.611ZM3.543,3.8c0-.041.086-.071.137-.071.393-.02.97-.031,1.575-.031,1.693,0,2.352.929,2.352,2.117,0,1.552-1.125,2.218-2.506,2.218-.232,0-.312-.01-.473-.01v2.347c0,.051-.02.071-.07.071H3.614c-.051,0-.07-.018-.07-.069V3.8ZM4.627,7.043c.14.01.252.01.495.01.715,0,1.387-.252,1.387-1.219,0-.776-.48-1.169-1.3-1.169-.242,0-.473.01-.585.02v2.36Zm5.258-.726c-.484,0-.645.242-.645.444,0,.222.11.373.756.706.958.464,1.26.907,1.26,1.562,0,.977-.745,1.5-1.753,1.5a2.669,2.669,0,0,1-1.252-.263c-.04-.02-.049-.05-.049-.1v-.9c0-.061.029-.081.07-.051A2.25,2.25,0,0,0,9.5,9.583c.484,0,.685-.2.685-.474,0-.222-.14-.414-.756-.736C8.562,7.957,8.2,7.536,8.2,6.829A1.5,1.5,0,0,1,9.882,5.387a2.847,2.847,0,0,1,1.1.171.133.133,0,0,1,.061.121v.837c0,.051-.031.081-.092.061a2.187,2.187,0,0,0-1.065-.263Z" transform="translate(356.093 526.551)" fill="#181716"/><path d="M0,.45V14.745H14.661V.45Zm.611.611H14.05V14.134H.611ZM3.847,3.8c0-.04.01-.071.061-.071.393-.02.967-.031,1.572-.031,1.693,0,2.429.928,2.429,2.117,0,1.552-1.123,2.218-2.5,2.218-.232,0-.313-.01-.474-.01v2.348c0,.051-.02.071-.07.071H3.917c-.051,0-.071-.02-.071-.071ZM4.931,7.042c.141.01.252.01.494.01.715,0,1.385-.252,1.385-1.219,0-.776-.478-1.169-1.294-1.169-.242,0-.473.01-.585.02Zm3.91-.555c0-.07,0-.252-.03-.594,0-.051.007-.061.047-.081a6.365,6.365,0,0,1,2.234-.423c.05,0,.07.01.07.06v.887c0,.05-.016.06-.067.06a3.5,3.5,0,0,0-1.155.121v3.849c0,.051-.021.071-.071.071H8.911c-.05,0-.07-.02-.07-.071Z" transform="translate(299.093 526.551)" fill="#181716"/><path d="M0,.45V14.745H14.661V.45Zm.611.611H14.05V14.134H.611ZM5.085,8.544,4.6,10.376c-.01.051-.031.062-.09.062h-.9c-.061,0-.07-.02-.061-.09L5.288,4.272a1.885,1.885,0,0,0,.06-.509c0-.04.02-.061.051-.061h1.28c.04,0,.061.011.071.061L8.7,10.357c.01.051,0,.081-.051.081H7.637c-.051,0-.081-.012-.09-.053l-.5-1.842H5.084Zm1.7-.993C6.618,6.876,6.214,5.4,6.063,4.68h-.01C5.922,5.4,5.6,6.6,5.347,7.552Zm2.749-3.4a.625.625,0,1,1,1.25,0,.585.585,0,0,1-.635.625.574.574,0,0,1-.617-.625Zm.068,1.389c0-.049.02-.067.071-.067h.959c.054,0,.073.02.073.071v4.823c0,.051-.01.071-.07.071H9.692c-.061,0-.081-.031-.081-.079V5.545Z" transform="translate(337.094 526.551)" fill="#181716"/><path d="M12.065.45H2.6A2.594,2.594,0,0,0,0,3.046v9.1a2.594,2.594,0,0,0,2.6,2.6h9.468a2.594,2.594,0,0,0,2.6-2.6v-9.1A2.594,2.594,0,0,0,12.065.45Zm1.979,11.46a2.213,2.213,0,0,1-2.211,2.224h-9A2.221,2.221,0,0,1,.611,11.916V3.278A2.221,2.221,0,0,1,2.828,1.061h9a2.217,2.217,0,0,1,2.217,2.218ZM5.8,7.139l1.71,3.287c.031.049.012.1-.037.1H6.408a.12.12,0,0,1-.128-.079c-.391-.806-.788-1.613-1.2-2.48H5.07C4.7,8.783,4.3,9.644,3.91,10.45a.117.117,0,0,1-.11.067H2.792c-.061,0-.067-.049-.037-.086L4.429,7.243,2.81,4.018a.049.049,0,0,1,.037-.086H3.9A.1.1,0,0,1,4.007,4c.385.806.776,1.637,1.142,2.45h.012c.354-.806.745-1.643,1.124-2.444.031-.049.049-.079.11-.079h.983c.049,0,.067.037.037.086Zm2.01,1A2.39,2.39,0,0,1,10.256,5.6a2.709,2.709,0,0,1,.318.012V3.993a.061.061,0,0,1,.061-.061H11.6c.049,0,.061.018.061.049V9.589a4.351,4.351,0,0,0,.031.6c0,.037-.012.049-.049.067a3.639,3.639,0,0,1-1.564.354A2.176,2.176,0,0,1,7.807,8.135Zm2.767-1.564a.924.924,0,0,0-.354-.061c-.77,0-1.307.593-1.307,1.576,0,1.124.55,1.576,1.24,1.576a1.152,1.152,0,0,0,.421-.067V6.571Z" transform="translate(394.094 526.551)" fill="#181716"/><path d="M12.064.45H2.6A2.594,2.594,0,0,0,0,3.046v9.1a2.594,2.594,0,0,0,2.6,2.6h9.468a2.594,2.594,0,0,0,2.6-2.6v-9.1A2.594,2.594,0,0,0,12.064.45Zm1.979,11.46a2.213,2.213,0,0,1-2.211,2.224h-9A2.222,2.222,0,0,1,.611,11.91V3.284A2.222,2.222,0,0,1,2.828,1.061h9a2.217,2.217,0,0,1,2.217,2.217ZM4.062,10.425c-.073,0-.092-.031-.092-.092V3.767c0-.049.018-.079.073-.079h.965c.049,0,.061.018.061.073V9.417H7.587c.049,0,.067.018.055.073l-.153.867a.087.087,0,0,1-.092.073H4.062v-.006ZM8.644,6.467c0-.073,0-.25-.031-.593A.07.07,0,0,1,8.662,5.8a6.425,6.425,0,0,1,2.248-.421c.049,0,.073.012.073.061v.88c0,.049-.018.061-.073.061A3.6,3.6,0,0,0,9.743,6.5v3.855c0,.049-.018.073-.073.073H8.711c-.049,0-.073-.018-.073-.073V6.467Z" transform="translate(375.094 526.551)" fill="#181716"/></g></svg>