<svg xmlns="http://www.w3.org/2000/svg" xmlns:xlink="http://www.w3.org/1999/xlink" width="260" height="131.625" viewBox="0 0 260 131.625"><defs><clipPath id="a"><rect width="260" height="131.625" fill="#181716"/></clipPath></defs><g clip-path="url(#a)"><path d="M21.637,98.938a5.767,5.767,0,0,0-1.109-1.756,6.517,6.517,0,0,0-1.59-1.257,7.059,7.059,0,0,0-1.812-.721v-.111a6.263,6.263,0,0,0,2.791-2.033,5.526,5.526,0,0,0,1.054-3.475,6.1,6.1,0,0,0-1-3.641,6.487,6.487,0,0,0-2.514-2.107,11.086,11.086,0,0,0-3.309-.961,25.525,25.525,0,0,0-3.383-.241H.009v26.173H11.877a18.026,18.026,0,0,0,3.752-.388,9.775,9.775,0,0,0,3.254-1.294,7.022,7.022,0,0,0,2.292-2.365,6.944,6.944,0,0,0,.869-3.6,5.831,5.831,0,0,0-.407-2.218M8.217,89.474H10.4a3.272,3.272,0,0,1,1.664.37,1.206,1.206,0,0,1,.628,1.109,1.508,1.508,0,0,1-.591,1.313,2.539,2.539,0,0,1-1.516.425H8.217Zm4.307,11.959a2.824,2.824,0,0,1-1.682.462H8.217V98.347h2.255a5.617,5.617,0,0,1,.869.074,3.029,3.029,0,0,1,.869.278,2.1,2.1,0,0,1,.684.536,1.283,1.283,0,0,1,.277.85,1.553,1.553,0,0,1-.647,1.349" transform="translate(-0.008 -69.353)" fill="#181716"/></g><g clip-path="url(#a)"><path d="M154.685,98.2a7.407,7.407,0,0,0,4.572-7.061,8.334,8.334,0,0,0-.924-4.122,7.419,7.419,0,0,0-2.422-2.624,9.669,9.669,0,0,0-3.4-1.368,19.112,19.112,0,0,0-3.827-.389H137.407l3.577,6.839h6.98a7.6,7.6,0,0,1,.88.055,2.626,2.626,0,0,1,.88.259,1.654,1.654,0,0,1,.66.61,2.071,2.071,0,0,1,.257,1.109,1.861,1.861,0,0,1-.312,1.128,2.219,2.219,0,0,1-.771.665,2.972,2.972,0,0,1-.99.314,7.009,7.009,0,0,1-.973.074h-4.409l3.016,5.767,5.014,9.353h10.108Z" transform="translate(-115.321 -69.352)" fill="#181716"/></g><g clip-path="url(#a)"><path d="M302.605,109.547a15.23,15.23,0,0,1-5.342-.85,10.7,10.7,0,0,1-3.79-2.329,9.275,9.275,0,0,1-2.255-3.493,12.5,12.5,0,0,1-.739-4.344v-15.9h8.8V97.569a4.365,4.365,0,0,0,.906,2.939,3.66,3.66,0,0,0,5.139,0,4.369,4.369,0,0,0,.906-2.939V82.634h8.762v15.9a11.729,11.729,0,0,1-.795,4.344,9.646,9.646,0,0,1-2.347,3.493,11.042,11.042,0,0,1-3.864,2.329,15.541,15.541,0,0,1-5.379.85" transform="translate(-243.789 -69.352)" fill="#181716"/></g><path d="M463.224,82.636h8.763l7.467,13.271h.148l-.37-13.271h8.355v26.173H478.6l-7.245-12.5h-.148l.37,12.5h-8.356Z" transform="translate(-388.769 -69.354)" fill="#181716"/><g clip-path="url(#a)"><path d="M651.05,86.039a12.492,12.492,0,0,0-3.069-4.307A13.781,13.781,0,0,0,643.36,79a17.788,17.788,0,0,0-11.535,0,13.568,13.568,0,0,0-4.6,2.736,12.608,12.608,0,0,0-3.05,4.307,14,14,0,0,0-1.109,5.674,14.4,14.4,0,0,0,1.109,5.73,13.05,13.05,0,0,0,3.05,4.418,13.553,13.553,0,0,0,4.6,2.828,17.163,17.163,0,0,0,11.535,0,13.767,13.767,0,0,0,4.621-2.828,12.926,12.926,0,0,0,3.069-4.418,14.4,14.4,0,0,0,1.109-5.73,14,14,0,0,0-1.109-5.674m-8.669,8.04a5.533,5.533,0,0,1-1.091,1.848,4.882,4.882,0,0,1-3.7,1.627,5.052,5.052,0,0,1-2.07-.425,4.682,4.682,0,0,1-1.645-1.2,5.662,5.662,0,0,1-1.072-1.848,6.89,6.89,0,0,1-.389-2.366,6.618,6.618,0,0,1,.389-2.31,5.072,5.072,0,0,1,1.072-1.775,4.822,4.822,0,0,1,1.645-1.127,5.259,5.259,0,0,1,2.07-.407,5.079,5.079,0,0,1,3.7,1.534A4.969,4.969,0,0,1,642.38,89.4a6.63,6.63,0,0,1,.388,2.31,6.9,6.9,0,0,1-.388,2.366" transform="translate(-522.915 -65.492)" fill="#181716"/></g><path d="M.012,279.963v26.174H8.663v-8.873h7.949v-7.209H8.625V287.32h9.058v-7.357Z" transform="translate(-0.01 -234.964)" fill="#181716"/><g clip-path="url(#a)"><path d="M153.734,278.769a12.493,12.493,0,0,0-3.069-4.306,13.769,13.769,0,0,0-4.621-2.736,17.788,17.788,0,0,0-11.535,0,13.562,13.562,0,0,0-4.6,2.736,12.609,12.609,0,0,0-3.05,4.306,14.006,14.006,0,0,0-1.109,5.675,14.4,14.4,0,0,0,1.109,5.73,13.06,13.06,0,0,0,3.05,4.417,13.569,13.569,0,0,0,4.6,2.828,17.16,17.16,0,0,0,11.535,0,13.778,13.778,0,0,0,4.621-2.828,12.935,12.935,0,0,0,3.069-4.417,14.4,14.4,0,0,0,1.109-5.73,14.008,14.008,0,0,0-1.109-5.675m-8.67,8.041a5.526,5.526,0,0,1-1.091,1.848,4.882,4.882,0,0,1-3.7,1.627,5.066,5.066,0,0,1-2.07-.425,4.69,4.69,0,0,1-1.645-1.2,5.686,5.686,0,0,1-1.072-1.848,6.9,6.9,0,0,1-.388-2.366,6.634,6.634,0,0,1,.388-2.311,5.1,5.1,0,0,1,1.072-1.774,4.831,4.831,0,0,1,1.645-1.128,5.258,5.258,0,0,1,2.07-.407,5.076,5.076,0,0,1,3.7,1.535,4.964,4.964,0,0,1,1.091,1.774,6.638,6.638,0,0,1,.388,2.311,6.905,6.905,0,0,1-.388,2.366" transform="translate(-105.534 -227.245)" fill="#181716"/></g><g clip-path="url(#a)"><path d="M345.335,278.769a12.5,12.5,0,0,0-3.069-4.306,13.768,13.768,0,0,0-4.622-2.736,17.787,17.787,0,0,0-11.535,0,13.56,13.56,0,0,0-4.6,2.736,12.609,12.609,0,0,0-3.05,4.306,14.009,14.009,0,0,0-1.109,5.675,14.4,14.4,0,0,0,1.109,5.73,13.059,13.059,0,0,0,3.05,4.417,13.569,13.569,0,0,0,4.6,2.828,17.159,17.159,0,0,0,11.535,0,13.776,13.776,0,0,0,4.622-2.828,12.941,12.941,0,0,0,3.069-4.417,14.4,14.4,0,0,0,1.109-5.73,14.01,14.01,0,0,0-1.109-5.675m-8.67,8.041a5.521,5.521,0,0,1-1.091,1.848,4.882,4.882,0,0,1-3.7,1.627,5.066,5.066,0,0,1-2.07-.425,4.692,4.692,0,0,1-1.646-1.2,5.692,5.692,0,0,1-1.072-1.848,6.9,6.9,0,0,1-.388-2.366,6.637,6.637,0,0,1,.388-2.311,5.1,5.1,0,0,1,1.072-1.774,4.832,4.832,0,0,1,1.646-1.128,5.258,5.258,0,0,1,2.07-.407,5.076,5.076,0,0,1,3.7,1.535,4.959,4.959,0,0,1,1.091,1.774,6.633,6.633,0,0,1,.388,2.311,6.9,6.9,0,0,1-.388,2.366" transform="translate(-266.339 -227.245)" fill="#181716"/></g><g clip-path="url(#a)"><path d="M540.462,286.656a10.852,10.852,0,0,0-3.456-3.975,13.768,13.768,0,0,0-4.991-2.107,28.111,28.111,0,0,0-5.934-.61h-9.76v26.174h10.5a20.222,20.222,0,0,0,5.62-.777,14.009,14.009,0,0,0,4.77-2.384,11.638,11.638,0,0,0,3.308-4.122,15.319,15.319,0,0,0-.056-12.2m-9.279,10.559a7.423,7.423,0,0,1-4.77,1.344h-1.627V287.431h1.96a6.608,6.608,0,0,1,4.436,1.419,4.927,4.927,0,0,1,1.663,3.961q0,3.058-1.663,4.4" transform="translate(-433.332 -234.965)" fill="#181716"/></g><g clip-path="url(#a)"><path d="M0,483.15a14.137,14.137,0,0,1,1.109-5.693A13.075,13.075,0,0,1,4.142,473.1,13.378,13.378,0,0,1,8.671,470.3a15.685,15.685,0,0,1,5.564-.98,16.669,16.669,0,0,1,5.731.98,13.269,13.269,0,0,1,4.51,2.643l-5.4,6.506a4.764,4.764,0,0,0-1.849-1.46,5.963,5.963,0,0,0-2.477-.5,5.494,5.494,0,0,0-2.071.388A4.882,4.882,0,0,0,11,479.01,5.228,5.228,0,0,0,9.873,480.8a6.458,6.458,0,0,0-.407,2.347,5.935,5.935,0,0,0,.425,2.311,5.546,5.546,0,0,0,1.146,1.756,4.863,4.863,0,0,0,1.682,1.128,5.376,5.376,0,0,0,2.033.388,5.127,5.127,0,0,0,2.606-.629,5.53,5.53,0,0,0,1.72-1.479l5.4,6.47a13.028,13.028,0,0,1-4.362,2.828,15.471,15.471,0,0,1-5.878,1.054,15.417,15.417,0,0,1-5.564-1,13.467,13.467,0,0,1-4.529-2.828,13.326,13.326,0,0,1-3.032-4.362A13.9,13.9,0,0,1,0,483.15" transform="translate(0 -393.888)" fill="#181716"/></g><g clip-path="url(#a)"><path d="M180.26,477.33a12.5,12.5,0,0,0-3.069-4.307,13.779,13.779,0,0,0-4.621-2.736,17.786,17.786,0,0,0-11.535,0,13.57,13.57,0,0,0-4.6,2.736,12.613,12.613,0,0,0-3.05,4.307A14,14,0,0,0,152.273,483a14.4,14.4,0,0,0,1.109,5.73,13.057,13.057,0,0,0,3.05,4.418,13.557,13.557,0,0,0,4.6,2.828,17.159,17.159,0,0,0,11.535,0,13.761,13.761,0,0,0,4.621-2.828,12.934,12.934,0,0,0,3.069-4.418,14.4,14.4,0,0,0,1.109-5.73,14,14,0,0,0-1.109-5.674m-8.67,8.04a5.527,5.527,0,0,1-1.091,1.848,4.882,4.882,0,0,1-3.7,1.627,5.055,5.055,0,0,1-2.07-.425,4.693,4.693,0,0,1-1.646-1.2,5.692,5.692,0,0,1-1.072-1.848,6.9,6.9,0,0,1-.388-2.366,6.633,6.633,0,0,1,.388-2.31,5.1,5.1,0,0,1,1.072-1.775,4.832,4.832,0,0,1,1.646-1.127,5.259,5.259,0,0,1,2.07-.407,5.08,5.08,0,0,1,3.7,1.534,4.962,4.962,0,0,1,1.091,1.775,6.629,6.629,0,0,1,.388,2.31A6.9,6.9,0,0,1,171.59,485.37Z" transform="translate(-127.796 -393.89)" fill="#181716"/></g><g clip-path="url(#a)"><path d="M368.521,494.09a7.41,7.41,0,0,0,4.572-7.061,8.335,8.335,0,0,0-.925-4.122,7.418,7.418,0,0,0-2.422-2.624,9.673,9.673,0,0,0-3.4-1.368,19.131,19.131,0,0,0-3.827-.389H351.243V504.7h8.54v-9.353h.258l5.014,9.353h10.107Zm-4.355-5.563a2.225,2.225,0,0,1-.771.665,2.972,2.972,0,0,1-.99.314,6.98,6.98,0,0,1-.972.074h-1.724v-4.215H361.8a7.625,7.625,0,0,1,.881.055,2.633,2.633,0,0,1,.881.259,1.66,1.66,0,0,1,.66.609,2.077,2.077,0,0,1,.257,1.109,1.862,1.862,0,0,1-.312,1.128" transform="translate(-294.787 -401.611)" fill="#181716"/></g><path d="M510.413,478.524h8.763l7.467,13.273h.148l-.37-13.273h8.355V504.7h-8.984l-7.246-12.5H518.4l.37,12.5h-8.355Z" transform="translate(-428.374 -401.61)" fill="#181716"/><path d="M687.292,478.524h18v7.32h-9.723V488.1H704.7v6.838h-9.131v2.441h10.351V504.7H687.292Z" transform="translate(-576.822 -401.61)" fill="#181716"/><g clip-path="url(#a)"><path d="M838.208,494.09a7.4,7.4,0,0,0,4.572-7.061,8.334,8.334,0,0,0-.924-4.122,7.417,7.417,0,0,0-2.422-2.624,9.669,9.669,0,0,0-3.4-1.368,19.1,19.1,0,0,0-3.826-.389H820.93V504.7h8.54v-9.353h.258l5.014,9.353h10.108Zm-4.355-5.563a2.219,2.219,0,0,1-.771.665,2.971,2.971,0,0,1-.99.314,6.98,6.98,0,0,1-.972.074H829.4v-4.215h2.092a7.666,7.666,0,0,1,.88.055,2.619,2.619,0,0,1,.88.259,1.643,1.643,0,0,1,.66.609,2.064,2.064,0,0,1,.257,1.109,1.861,1.861,0,0,1-.312,1.128" transform="translate(-688.98 -401.611)" fill="#181716"/></g><g clip-path="url(#a)"><path d="M1438.007,100.557c-1.23,0-2.189-.215-2.425-.827-1.41-3.667,2.189-9.418,6.381-13.49,4.242-4.121,10.9-8.258,15.7-6.353,2.991,1.187,4.627,4.516,4.923,7.29.284,2.674-1.815,5.379-6.071,7.82A48.1,48.1,0,0,1,1444.2,99.64a30.969,30.969,0,0,1-6.192.916" transform="translate(-1204.577 -66.646)" fill="#181716"/><path d="M1216.18,300.221a39.76,39.76,0,0,1-13.882-2.379,32.917,32.917,0,0,1-11.106-6.751,31.319,31.319,0,0,1-7.365-10.551,34.175,34.175,0,0,1-2.676-13.667,33.247,33.247,0,0,1,2.678-13.539,30.279,30.279,0,0,1,7.369-10.292,32.953,32.953,0,0,1,11.106-6.532,43.21,43.21,0,0,1,27.755,0,33.476,33.476,0,0,1,11.147,6.53,30,30,0,0,1,7.414,10.293,33.251,33.251,0,0,1,2.677,13.539,34.175,34.175,0,0,1-2.676,13.667,31.031,31.031,0,0,1-7.41,10.553,33.44,33.44,0,0,1-11.147,6.749,39.788,39.788,0,0,1-13.884,2.378m0-46.087a12.2,12.2,0,0,0-4.735.92,11.039,11.039,0,0,0-3.749,2.54,11.49,11.49,0,0,0-2.446,4.011,15.013,15.013,0,0,0-.9,5.269,15.645,15.645,0,0,0,.9,5.4,12.878,12.878,0,0,0,2.458,4.2,10.709,10.709,0,0,0,3.744,2.706,11.7,11.7,0,0,0,4.728.959,11.178,11.178,0,0,0,8.432-3.669,12.585,12.585,0,0,0,2.5-4.19,15.688,15.688,0,0,0,.894-5.4,15.049,15.049,0,0,0-.893-5.268,11.231,11.231,0,0,0-2.487-4.006,11.653,11.653,0,0,0-3.756-2.546,11.874,11.874,0,0,0-4.688-.918" transform="translate(-991.299 -196.574)" fill="#181716"/></g><g clip-path="url(#a)"><path d="M0,0V131.625" transform="translate(170.2)" fill="none" stroke="#181716" stroke-width="6"/></g></svg>