<?xml version="1.0" encoding="UTF-8"?>
<svg id="Layer_2" data-name="Layer 2" xmlns="http://www.w3.org/2000/svg" viewBox="0 0 119.29 119.29">
  <defs>
    <style>
      .cls-1 {
        fill: #ec8d32;
      }

      .cls-1, .cls-2, .cls-3, .cls-4 {
        stroke-width: 0px;
      }

      .cls-5 {
        isolation: isolate;
      }

      .cls-6 {
        stroke-miterlimit: 4;
        stroke-width: 1px;
      }

      .cls-6, .cls-7, .cls-8, .cls-9, .cls-10 {
        fill: none;
      }

      .cls-6, .cls-8, .cls-9, .cls-10 {
        stroke: #000;
      }

      .cls-3 {
        fill: #f7f3ee;
      }

      .cls-4 {
        fill: #181716;
      }

      .cls-7 {
        stroke: #181716;
        stroke-width: 2px;
      }

      .cls-8 {
        stroke-miterlimit: 4;
        stroke-width: 1px;
      }

      .cls-10 {
        stroke-miterlimit: 4;
        stroke-width: 1px;
      }
    </style>
  </defs>
  <g id="Layer_20" data-name="Layer 20">
    <g id="Group_141" data-name="Group 141">
      <path id="Path_7809" data-name="Path 7809" class="cls-1" d="m59.64,0C92.58,0,119.29,26.7,119.29,59.64s-26.7,59.64-59.64,59.64S0,92.58,0,59.64c0,0,0,0,0,0C0,26.7,26.7,0,59.64,0c0,0,0,0,0,0"/>
      <path id="Path_7808" data-name="Path 7808" class="cls-3" d="m41.76,59.26c0-9.66,7.84-17.5,17.51-17.49,9.66,0,17.49,7.83,17.49,17.49h-17.5v17.5c-9.66,0-17.5-7.84-17.5-17.5"/>
      <path id="Subtraction_1" data-name="Subtraction 1" class="cls-7" d="m71.49,71.78c-3.26,3.2-7.66,4.99-12.23,4.98-9.66,0-17.5-7.84-17.5-17.5s7.84-17.5,17.5-17.5,17.5,7.84,17.5,17.5h-17.5"/>
      <line id="Line_110" data-name="Line 110" class="cls-7" x1="59.26" y1="77.64" x2="59.26" y2="40.87"/>
      <line id="Line_111" data-name="Line 111" class="cls-7" x1="77.65" y1="59.26" x2="40.88" y2="59.26"/>
    </g>
    <g id="download_cv" data-name="download cv">
      <circle id="Ellipse_596" data-name="Ellipse 596" class="cls-4" cx="47" cy="18" r="4"/>
      <circle id="Ellipse_597" data-name="Ellipse 597" class="cls-4" cx="73" cy="18" r="4"/>
      <circle id="Ellipse_598" data-name="Ellipse 598" class="cls-4" cx="60" cy="16" r="4"/>
      <g id="D" class="cls-5">
        <g class="cls-5">
          <path class="cls-2" d="m27.37,23.68l10.73,9-2.48,2.96c-3.17,3.78-6.5,4.21-9.99,1.28-1.65-1.39-2.54-3.03-2.67-4.92-.12-1.89.55-3.72,2.03-5.48l2.39-2.84Zm8.54,9.3l-8.45-7.09-1.34,1.6c-1.18,1.41-1.72,2.82-1.62,4.23.1,1.42.83,2.7,2.22,3.86,2.75,2.3,5.35,2,7.8-.93l1.41-1.68Z"/>
        </g>
        <g class="cls-5">
          <path class="cls-9" d="m27.37,23.68l10.73,9-2.48,2.96c-3.17,3.78-6.5,4.21-9.99,1.28-1.65-1.39-2.54-3.03-2.67-4.92-.12-1.89.55-3.72,2.03-5.48l2.39-2.84Zm8.54,9.3l-8.45-7.09-1.34,1.6c-1.18,1.41-1.72,2.82-1.62,4.23.1,1.42.83,2.7,2.22,3.86,2.75,2.3,5.35,2,7.8-.93l1.41-1.68Z"/>
        </g>
      </g>
      <g id="O" class="cls-5">
        <g class="cls-5">
          <path class="cls-2" d="m13.11,47.09c.45-1.94,1.44-3.34,2.99-4.21,1.54-.87,3.34-1.07,5.38-.6,2.2.51,3.81,1.5,4.84,2.99,1.03,1.49,1.31,3.25.84,5.3-.43,1.88-1.42,3.26-2.95,4.11-1.53.86-3.33,1.05-5.38.58-2.23-.51-3.85-1.51-4.87-2.99-1.02-1.48-1.3-3.21-.85-5.19Zm12.63,3.04c.33-1.43.08-2.72-.74-3.85-.83-1.13-2.08-1.89-3.76-2.28-1.68-.39-3.13-.26-4.36.37s-2,1.65-2.32,3.06c-.35,1.5-.13,2.79.65,3.88.78,1.09,2.04,1.83,3.8,2.24,1.8.42,3.29.32,4.47-.29,1.18-.61,1.93-1.65,2.27-3.12Z"/>
        </g>
        <g class="cls-5">
          <path class="cls-9" d="m13.11,47.09c.45-1.94,1.44-3.34,2.99-4.21,1.54-.87,3.34-1.07,5.38-.6,2.2.51,3.81,1.5,4.84,2.99,1.03,1.49,1.31,3.25.84,5.3-.43,1.88-1.42,3.26-2.95,4.11-1.53.86-3.33,1.05-5.38.58-2.23-.51-3.85-1.51-4.87-2.99-1.02-1.48-1.3-3.21-.85-5.19Zm12.63,3.04c.33-1.43.08-2.72-.74-3.85-.83-1.13-2.08-1.89-3.76-2.28-1.68-.39-3.13-.26-4.36.37s-2,1.65-2.32,3.06c-.35,1.5-.13,2.79.65,3.88.78,1.09,2.04,1.83,3.8,2.24,1.8.42,3.29.32,4.47-.29,1.18-.61,1.93-1.65,2.27-3.12Z"/>
        </g>
      </g>
      <g id="W" class="cls-5">
        <g class="cls-5">
          <path class="cls-2" d="m29.34,76.51l-14.54.31-.56-1.84,8.94-5.74c.38-.25.81-.46,1.3-.63v-.04c-.48.1-.96.16-1.43.17l-10.65.22-.56-1.82,12.19-8.01.53,1.73-9.4,5.98c-.39.25-.82.46-1.28.63v.05c.35-.07.83-.11,1.45-.12l11.17-.18.46,1.5-9.48,6c-.33.21-.72.41-1.18.6v.04c.34-.07.8-.12,1.38-.14l11.14-.41.52,1.7Z"/>
        </g>
        <g class="cls-5">
          <path class="cls-10" d="m29.34,76.51l-14.54.31-.56-1.84,8.94-5.74c.38-.25.81-.46,1.3-.63v-.04c-.48.1-.96.16-1.43.17l-10.65.22-.56-1.82,12.19-8.01.53,1.73-9.4,5.98c-.39.25-.82.46-1.28.63v.05c.35-.07.83-.11,1.45-.12l11.17-.18.46,1.5-9.48,6c-.33.21-.72.41-1.18.6v.04c.34-.07.8-.12,1.38-.14l11.14-.41.52,1.7Z"/>
        </g>
      </g>
      <g id="N" class="cls-5">
        <g class="cls-5">
          <path class="cls-2" d="m29.6,96.94l-1.47-1.37,2.34-13.08c.06-.33.15-.65.27-.95l-.04-.04c-.17.25-.58.74-1.25,1.46l-6.9,7.4-1.2-1.12,9.55-10.24,1.56,1.45-2.37,12.82c-.1.53-.17.89-.22,1.07l.03.03c.23-.34.67-.86,1.33-1.57l6.73-7.21,1.2,1.12-9.55,10.24Z"/>
        </g>
        <g class="cls-5">
          <path class="cls-9" d="m29.6,96.94l-1.47-1.37,2.34-13.08c.06-.33.15-.65.27-.95l-.04-.04c-.17.25-.58.74-1.25,1.46l-6.9,7.4-1.2-1.12,9.55-10.24,1.56,1.45-2.37,12.82c-.1.53-.17.89-.22,1.07l.03.03c.23-.34.67-.86,1.33-1.57l6.73-7.21,1.2,1.12-9.55,10.24Z"/>
        </g>
      </g>
      <g id="L" class="cls-5">
        <g class="cls-5">
          <path class="cls-2" d="m46.32,105.39l-6.91-2.25,4.33-13.32,1.56.51-3.87,11.91,5.35,1.74-.46,1.41Z"/>
        </g>
        <g class="cls-5">
          <path class="cls-9" d="m46.32,105.39l-6.91-2.25,4.33-13.32,1.56.51-3.87,11.91,5.35,1.74-.46,1.41Z"/>
        </g>
      </g>
      <g id="O-2" class="cls-5">
        <g class="cls-5">
          <path class="cls-2" d="m62,107.33c-1.98.21-3.63-.28-4.95-1.45-1.33-1.18-2.1-2.81-2.32-4.89-.24-2.24.18-4.09,1.25-5.56s2.65-2.3,4.73-2.52c1.92-.2,3.54.28,4.85,1.45,1.31,1.17,2.08,2.8,2.3,4.9.24,2.27-.17,4.13-1.24,5.58-1.06,1.45-2.61,2.28-4.63,2.49Zm-1.25-12.94c-1.46.15-2.6.81-3.4,1.96-.8,1.15-1.11,2.59-.93,4.3.18,1.72.77,3.05,1.77,4,1,.95,2.22,1.35,3.65,1.2,1.53-.16,2.68-.79,3.46-1.88.78-1.09,1.07-2.53.88-4.33-.19-1.84-.77-3.22-1.73-4.13-.96-.91-2.19-1.29-3.7-1.13Z"/>
        </g>
        <g class="cls-5">
          <path class="cls-8" d="m62,107.33c-1.98.21-3.63-.28-4.95-1.45-1.33-1.18-2.1-2.81-2.32-4.89-.24-2.24.18-4.09,1.25-5.56s2.65-2.3,4.73-2.52c1.92-.2,3.54.28,4.85,1.45,1.31,1.17,2.08,2.8,2.3,4.9.24,2.27-.17,4.13-1.24,5.58-1.06,1.45-2.61,2.28-4.63,2.49Zm-1.25-12.94c-1.46.15-2.6.81-3.4,1.96-.8,1.15-1.11,2.59-.93,4.3.18,1.72.77,3.05,1.77,4,1,.95,2.22,1.35,3.65,1.2,1.53-.16,2.68-.79,3.46-1.88.78-1.09,1.07-2.53.88-4.33-.19-1.84-.77-3.22-1.73-4.13-.96-.91-2.19-1.29-3.7-1.13Z"/>
        </g>
      </g>
      <g id="A" class="cls-5">
        <g class="cls-5">
          <path class="cls-2" d="m87.58,98.02l-1.56.94-3.29-2.6-5.09,3.06.82,4.08-1.57.94-2.61-14.77,1.46-.88,11.83,9.23Zm-6.07-2.65l-4.96-3.98c-.16-.13-.38-.36-.67-.69l-.03.02c.15.37.25.68.29.92l1.21,6.24,4.16-2.5Z"/>
        </g>
        <g class="cls-5">
          <path class="cls-9" d="m87.58,98.02l-1.56.94-3.29-2.6-5.09,3.06.82,4.08-1.57.94-2.61-14.77,1.46-.88,11.83,9.23Zm-6.07-2.65l-4.96-3.98c-.16-.13-.38-.36-.67-.69l-.03.02c.15.37.25.68.29.92l1.21,6.24,4.16-2.5Z"/>
        </g>
      </g>
      <g id="D-2" class="cls-5">
        <g class="cls-5">
          <path class="cls-2" d="m94.7,92l-11.61-7.83,2.16-3.21c2.76-4.09,6.02-4.86,9.8-2.32,1.79,1.21,2.85,2.75,3.17,4.62.32,1.87-.16,3.76-1.44,5.66l-2.07,3.08Zm-9.46-8.36l9.15,6.17,1.17-1.73c1.03-1.52,1.42-2.98,1.17-4.38-.24-1.4-1.11-2.6-2.61-3.61-2.97-2-5.53-1.43-7.66,1.74l-1.22,1.81Z"/>
        </g>
        <g class="cls-5">
          <path class="cls-6" d="m94.7,92l-11.61-7.83,2.16-3.21c2.76-4.09,6.02-4.86,9.8-2.32,1.79,1.21,2.85,2.75,3.17,4.62.32,1.87-.16,3.76-1.44,5.66l-2.07,3.08Zm-9.46-8.36l9.15,6.17,1.17-1.73c1.03-1.52,1.42-2.98,1.17-4.38-.24-1.4-1.11-2.6-2.61-3.61-2.97-2-5.53-1.43-7.66,1.74l-1.22,1.81Z"/>
        </g>
      </g>
      <g id="C" class="cls-5">
        <g class="cls-5">
          <path class="cls-2" d="m106.03,54.76c.58,1.02.9,2.29.96,3.84.07,1.99-.52,3.61-1.76,4.85-1.24,1.24-2.9,1.9-4.98,1.97-2.24.08-4.07-.53-5.5-1.83s-2.18-2.98-2.25-5.05c-.05-1.33.11-2.43.46-3.32l1.75-.06c-.52,1.02-.77,2.14-.72,3.35.06,1.61.64,2.89,1.75,3.85,1.11.96,2.56,1.41,4.36,1.35,1.71-.06,3.05-.57,4.03-1.54.98-.97,1.44-2.21,1.39-3.73-.05-1.41-.4-2.61-1.07-3.62l1.59-.06Z"/>
        </g>
        <g class="cls-5">
          <path class="cls-9" d="m106.03,54.76c.58,1.02.9,2.29.96,3.84.07,1.99-.52,3.61-1.76,4.85-1.24,1.24-2.9,1.9-4.98,1.97-2.24.08-4.07-.53-5.5-1.83s-2.18-2.98-2.25-5.05c-.05-1.33.11-2.43.46-3.32l1.75-.06c-.52,1.02-.77,2.14-.72,3.35.06,1.61.64,2.89,1.75,3.85,1.11.96,2.56,1.41,4.36,1.35,1.71-.06,3.05-.57,4.03-1.54.98-.97,1.44-2.21,1.39-3.73-.05-1.41-.4-2.61-1.07-3.62l1.59-.06Z"/>
        </g>
      </g>
      <g id="_." data-name=" ." class="cls-5">
        <g class="cls-5">
          <path class="cls-2" d="m104.62,44.74c.1.28.09.56-.04.83-.13.27-.34.46-.62.56s-.56.09-.84-.03-.47-.33-.57-.61c-.1-.29-.09-.57.04-.85.13-.28.34-.46.62-.57s.56-.09.84.04c.27.13.46.34.57.62Z"/>
        </g>
        <g class="cls-5">
          <path class="cls-9" d="m104.62,44.74c.1.28.09.56-.04.83-.13.27-.34.46-.62.56s-.56.09-.84-.03-.47-.33-.57-.61c-.1-.29-.09-.57.04-.85.13-.28.34-.46.62-.57s.56-.09.84.04c.27.13.46.34.57.62Z"/>
        </g>
      </g>
      <g id="V" class="cls-5">
        <g class="cls-5">
          <path class="cls-2" d="m84.73,37.46l14.51-3.53,1.01,1.5-8.77,12.04-1.02-1.51,7.04-9.42c.23-.3.52-.61.87-.93l-.02-.03c-.35.18-.76.32-1.22.44l-11.4,2.92-.99-1.46Z"/>
        </g>
        <g class="cls-5">
          <path class="cls-6" d="m84.73,37.46l14.51-3.53,1.01,1.5-8.77,12.04-1.02-1.51,7.04-9.42c.23-.3.52-.61.87-.93l-.02-.03c-.35.18-.76.32-1.22.44l-11.4,2.92-.99-1.46Z"/>
        </g>
      </g>
      <g id="_.-2" data-name=" .-2" class="cls-5">
        <g class="cls-5">
          <path class="cls-2" d="m91.74,24.64c.23.2.35.45.37.75s-.07.56-.27.79c-.2.23-.45.35-.75.38s-.57-.06-.79-.26c-.23-.2-.36-.46-.38-.76s.07-.57.27-.8c.2-.23.45-.35.75-.37s.57.07.8.27Z"/>
        </g>
        <g class="cls-5">
          <path class="cls-9" d="m91.74,24.64c.23.2.35.45.37.75s-.07.56-.27.79c-.2.23-.45.35-.75.38s-.57-.06-.79-.26c-.23-.2-.36-.46-.38-.76s.07-.57.27-.8c.2-.23.45-.35.75-.37s.57.07.8.27Z"/>
        </g>
      </g>
    </g>
  </g>
</svg>