<svg xmlns="http://www.w3.org/2000/svg" xmlns:xlink="http://www.w3.org/1999/xlink" width="152.561" height="127.528" viewBox="0 0 152.561 127.528"><defs><clipPath id="a"><rect width="152.561" height="127.528" fill="none"/></clipPath></defs><g clip-path="url(#a)"><path d="M128.044,53.925a1.5,1.5,0,0,0-.061-.265,1.283,1.283,0,0,0-.083-.258,1.19,1.19,0,0,0-.068-.174,3.036,3.036,0,0,0-.682-.97,3.784,3.784,0,0,0-.386-.3,2.939,2.939,0,0,0-1.538-.515,3.815,3.815,0,0,0-1.531.227,1.792,1.792,0,0,0-.568.349.007.007,0,0,1-.008.008c-.053.045-.1.1-.152.152a2.09,2.09,0,0,0-.243.371,2.307,2.307,0,0,0-.227.69s.008,0,0,.008a4.236,4.236,0,0,0-.061.561v.167a3.219,3.219,0,0,0,.379,1.614,2.109,2.109,0,0,0,.637.728,2.066,2.066,0,0,0,.417.243,2.5,2.5,0,0,0,.493.159,3.872,3.872,0,0,0,.546.061.5.5,0,0,1,.106.008,4.061,4.061,0,0,0,.621-.045c.106-.023.2-.038.3-.061s.189-.053.28-.083a2.762,2.762,0,0,0,.265-.106,2.625,2.625,0,0,0,1.341-1.243,2.537,2.537,0,0,0,.182-.493,1.494,1.494,0,0,0,.053-.265c.008-.091.023-.182.023-.28v-.053c-.008-.076-.015-.152-.03-.227m0,0a1.5,1.5,0,0,0-.061-.265,1.283,1.283,0,0,0-.083-.258,1.19,1.19,0,0,0-.068-.174,3.036,3.036,0,0,0-.682-.97,3.784,3.784,0,0,0-.386-.3,2.939,2.939,0,0,0-1.538-.515,3.815,3.815,0,0,0-1.531.227,1.792,1.792,0,0,0-.568.349.007.007,0,0,1-.008.008c-.053.045-.1.1-.152.152a2.09,2.09,0,0,0-.243.371,2.307,2.307,0,0,0-.227.69s.008,0,0,.008a4.236,4.236,0,0,0-.061.561v.167a3.219,3.219,0,0,0,.379,1.614,2.109,2.109,0,0,0,.637.728,2.066,2.066,0,0,0,.417.243,2.5,2.5,0,0,0,.493.159,3.872,3.872,0,0,0,.546.061.5.5,0,0,1,.106.008,4.061,4.061,0,0,0,.621-.045c.106-.023.2-.038.3-.061s.189-.053.28-.083a2.762,2.762,0,0,0,.265-.106,2.625,2.625,0,0,0,1.341-1.243,2.537,2.537,0,0,0,.182-.493,1.494,1.494,0,0,0,.053-.265c.008-.091.023-.182.023-.28v-.053c-.008-.076-.015-.152-.03-.227m0,0a1.5,1.5,0,0,0-.061-.265,1.283,1.283,0,0,0-.083-.258,1.19,1.19,0,0,0-.068-.174,3.036,3.036,0,0,0-.682-.97,3.784,3.784,0,0,0-.386-.3,2.939,2.939,0,0,0-1.538-.515,3.815,3.815,0,0,0-1.531.227,1.792,1.792,0,0,0-.568.349.007.007,0,0,1-.008.008c-.053.045-.1.1-.152.152a2.09,2.09,0,0,0-.243.371,2.307,2.307,0,0,0-.227.69s.008,0,0,.008a4.236,4.236,0,0,0-.061.561v.167a3.219,3.219,0,0,0,.379,1.614,2.109,2.109,0,0,0,.637.728,2.066,2.066,0,0,0,.417.243,2.5,2.5,0,0,0,.493.159,3.872,3.872,0,0,0,.546.061.5.5,0,0,1,.106.008,4.061,4.061,0,0,0,.621-.045c.106-.023.2-.038.3-.061s.189-.053.28-.083a2.762,2.762,0,0,0,.265-.106,2.625,2.625,0,0,0,1.341-1.243,2.537,2.537,0,0,0,.182-.493,1.494,1.494,0,0,0,.053-.265c.008-.091.023-.182.023-.28v-.053c-.008-.076-.015-.152-.03-.227" transform="translate(-29.65 -12.456)" fill="#181716"/><path d="M152.4,97.073a23.733,23.733,0,0,0-6.154-12.724,61.628,61.628,0,0,0,2.812-5.835c1.326-3.554,1.842-7.215.129-10.814-2.743-5.767-8.086-7.427-13.883-4.721a28.15,28.15,0,0,0-9.132,7.283A11.871,11.871,0,0,1,124.22,72.1a7.884,7.884,0,0,1-.377-2.186c.049-3.362.007-6.769-.176-10.127-.162-2.991-.318-5.982-.518-8.97q-.084-1.254-.18-2.506a26.4,26.4,0,0,0-3.092-11.421c-1.91-3.312-4.8-5.244-8.624-5.07a54.776,54.776,0,0,0-10.3,1.349c-5.479,1.311-10.405,3.842-13.883,8.488a67.613,67.613,0,0,0-3.683,6.063,43.994,43.994,0,0,1-4.456-1.4,2.963,2.963,0,0,1-1.357-1.554c-.246-.708-.479-1.423-.665-2.149a9.02,9.02,0,0,0-.889-2.549c-.182-.341-.674-1.152-.8-1.326a13.365,13.365,0,0,0-8.958-5.6,59.639,59.639,0,0,0-5.9-1.008,32.3,32.3,0,0,0-12.239,1.758A20.75,20.75,0,0,0,34.334,47.322c-1.864,5.267-.629,10.784-.523,16.187.106,5.085.614,10.163.932,15.232a14.358,14.358,0,0,1-.136,1.607c-1.046-1.372-1.879-2.38-2.637-3.456a10.888,10.888,0,0,0-6.927-4.9c-4.168-.849-8.132-.568-11.5,2.122C9.4,77.438,7.249,84.38,10.288,89.677c.735,1.273,1.341,2.6,2.046,3.956-1.046.182-1.925.273-2.759.5-3.812.985-7.071,2.69-8.753,6.525-1.106,2.493-.864,5.04-.6,7.669.318,3.145,1.288,5.919,3.645,8.01a63.189,63.189,0,0,0,5.373,3.918,13.37,13.37,0,0,0,1.554,7.4,9.218,9.218,0,0,0,6.29,5.176,10.517,10.517,0,0,0,8.465-1.94,1.57,1.57,0,0,1,2.478.25,7.287,7.287,0,0,0,5.2,2.417c8.92.235,11.193-6.911,10.685-13.762-.106-1.4-.371-2.812-.515-4.214q-.523-4.547-.985-9.1c-.144-1.538-.235-3.092-.364-4.736,2.478,0,4.744-.053,7,.053a1.725,1.725,0,0,1,1.235,1.046,33.316,33.316,0,0,1,.394,4.07c.144,2.2.3,4.38.371,6.57.106,3.85.28,7.692.174,11.542-.076,2.872-.6,5.729-.826,8.609-.038.515.44,1.069.667,1.591.53-.432,1.432-.818,1.538-1.349.781-4.009,1.629-8.025,2.023-12.072.462-4.8.47-9.632.7-14.459q.1-2.376.341-4.736c.03-.333.333-.644.508-.955a11.1,11.1,0,0,1,.811,3.274c.25,2.493.417,5,.674,7.495q.614,6.343,1.311,12.671a30.824,30.824,0,0,0,.667,4.32c.114.493.781.849,1.19,1.266.265-.493.758-.985.758-1.463-.038-3.2-.182-6.381-.3-9.564-.212-5.358-.5-10.731-.637-16.1-.106-3.782-.015-3.774,3.531-5.1a19.436,19.436,0,0,0,7.851-5.009c3.3-3.569,4.873-7.935,6.207-12.451.189-.637.477-1.235.818-2.092.394.477.69.69.765.955.584,1.751,1.1,3.516,1.682,5.252,1.97,5.9,4.8,11.148,10.481,14.361a2.466,2.466,0,0,1,.781,1.652c.311,2.213.477,4.448.72,6.661.318,3.024.69,6.048,1.008,9.079.349,3.441.652,6.9.985,10.36,1.591-.091,2.122-.826,1.986-2.258a36.236,36.236,0,0,1,.03-3.63c.06-1.062-.041-2.126-.028-3.188.013-1.113.058-2.731.067-3.844.036-4.583.127-7.654.529-11.709a7.793,7.793,0,0,0,.173,1.216c.037.436.049.873.054,1.31.009.9.137,2.758.183,3.661.094,1.86.127,2.757.181,4.62a34.966,34.966,0,0,0,.54,5.449c.161.9.4,2.107.58,3,.188.949.19,1.926.417,2.868a43.674,43.674,0,0,0,1.729,5.771c.114.288.8.364,1.228.553.167-.44.5-.9.462-1.311-.218-2.326-.635-4.632-.813-6.96a27.162,27.162,0,0,1,.111-3.266c.046-1.071,0-2.147.01-3.219q.039-3.452.321-6.9a2.693,2.693,0,0,1,.023-.349c0-.091.008-.182.015-.273.167-2.273.576-4.486.925-6.73.227-1.364,1.053-1.773,2.766-1.485a21.586,21.586,0,0,0-1.04,2.809q-.5,1.5-.9,3.031a43.747,43.747,0,0,0-1.031,6.135,43.155,43.155,0,0,0-.462,4.642,20.444,20.444,0,0,0,.554,4.844,6.7,6.7,0,0,0,.944,2.02,23.139,23.139,0,0,0,1.964,2.913,8.49,8.49,0,0,0,2.582,1.89,7.478,7.478,0,0,0,6.135.157,3.294,3.294,0,0,0,1.023-.5c1.122-1.167,2.16-.909,3.516-.212a13.248,13.248,0,0,0,4.517,1.281c3.509.386,6.472-1.084,9.42-2.834,3.478-2.076,5.464-8,4.774-11.853-.379-2.19-.061-2.812,2.046-3.206a10.73,10.73,0,0,1,1.281-.28c8.124-.864,11.011-7.692,10.117-14.315M75.485,68.738a58.273,58.273,0,0,1-1.978,10.943c-1.417,4.911-4.017,9.344-8.465,12.012a56.768,56.768,0,0,1-11.383,4.987,38.77,38.77,0,0,1-8.768,1.379c-2.986.265-3.873-.985-4.433-3.585a43.828,43.828,0,0,1-1.015-7.881c-.174-5.8-.03-11.61-.2-17.407-.2-6.919,1.25-13.641,2.956-20.2,1.425-5.411,4.592-9.973,10.284-11.906a30.945,30.945,0,0,1,13.1-1.834c0-.015.015-.015.023-.03a13.4,13.4,0,0,1,8.617,4.752.564.564,0,0,1,.068.091l.061.061c.053.061.1.121.212.273a20.711,20.711,0,0,1,1.431,2.681c.264.494,1.435,2.017.976,2.472-.217.214-.287.149-.583.089a11.322,11.322,0,0,0-1.256-.186,3.866,3.866,0,0,0-1.938.267A1.04,1.04,0,0,0,72.564,47c.184.525.786.757,1.273.9,1.657.485,3.352.862,5.023,1.3l2.554.666,1.331.347c.183.048,1.159.43,1.288.336A12.772,12.772,0,0,1,82.32,51.6c-3.236,1.152-6.5,2.228-9.731,3.425-1.131.42-.967,2.352.349,2.228a12.315,12.315,0,0,0,2.615-.53c0,4.032.265,8.048-.068,12.019m4.729-8.745c-.3,1.811-.621,3.607-.925,5.373-.735-.394-1.493-4.365-1.281-7.359,1.94,0,2.455.493,2.205,1.986M117.5,82.167a46.227,46.227,0,0,1-3.145,7.76c-1.978,3.478-5.464,5.275-9.011,6.79a24.158,24.158,0,0,1-5.661,1.66c-4.289.667-6.9-2.031-9.276-5.032-3.812-4.782-5.517-10.473-6.82-16.286a78.526,78.526,0,0,1-1.652-11.026c-.159-2.175.47-4.4.773-6.889,1.766.508,3.486,1.008,5.229,1.455a1.86,1.86,0,0,0,1.588-.083,1.06,1.06,0,0,0-.141-1.917c-2.812-1.031-5.653-1.993-8.488-2.971-.371-.129-.735-.3-1.106-.424,0-.174,0-.333.015-.5,2.842-1.144,5.691-2.281,8.533-3.456a5.716,5.716,0,0,0,1.122-.781,4.213,4.213,0,0,0-.962-.909c-3.031-1.584-3.107-1.622-1.235-4.668,3.539-5.813,8.768-8.8,15.558-8.427,6.161.326,14.452,6.207,14.619,14.634.1,4.6,1.084,9.185,1.159,13.808.106,5.76.826,11.625-1.1,17.263" transform="translate(0 -7.702)" fill="#181716"/><path d="M108.392,14.717c.667,3.19-1.531,5.585-4.812,5.714-.386.015-.773.015-1.159.015-2.289-.015-3.531-.962-3.615-2.743a4.273,4.273,0,0,1,3.774-3.933c1.25-.038,2.508,0,4.191,0q-.249-1.075-.5-2.151-.242-1.039-.485-2.077-.236-1.014-.474-2.027t-.467-2a5.764,5.764,0,0,0-.2-.671,3.878,3.878,0,0,0-.27-.716c-.042-.07-.084-.142-.128-.211a.542.542,0,0,1-.054-.093c-.108-.344-.19-.7-.286-1.047s-.2-.721-.3-1.083c-.064-.23-.128-.462-.191-.693l-.1-.346a2.092,2.092,0,0,1-.092-.336L103.632,0c1.754.931,3.491,1.915,5.269,2.793-.313.208-.629.589-1.022.621a9.317,9.317,0,0,0-1.091-.054,7.784,7.784,0,0,0-1.33.467c.993,3.622,2.167,7.215,2.933,10.89" transform="translate(-23.927)" fill="#181716"/><path d="M87.068,48.9a2.622,2.622,0,0,1-2.577,2.627,2.7,2.7,0,0,1-2.712-2.69c0-.058,0-.117.005-.175A2.542,2.542,0,0,1,84.4,46.19l.04,0a2.586,2.586,0,0,1,2.629,2.543c0,.055,0,.108,0,.163Z" transform="translate(-19.804 -11.185)" fill="#181716"/><path d="M128.08,54.2a2.826,2.826,0,0,1-3.171,2.577c-1.591-.053-2.521-1.181-2.467-2.972.053-1.658.928-2.4,2.786-2.361a2.993,2.993,0,0,1,2.852,2.759Z" transform="translate(-29.651 -12.459)" fill="#181716"/><path d="M128.08,54.2a2.826,2.826,0,0,1-3.171,2.577c-1.591-.053-2.521-1.181-2.467-2.972.053-1.658.928-2.4,2.786-2.361a2.993,2.993,0,0,1,2.852,2.759Z" transform="translate(-29.651 -12.459)" fill="#181716"/><path d="M128.044,53.925a1.5,1.5,0,0,0-.061-.265,1.283,1.283,0,0,0-.083-.258,1.19,1.19,0,0,0-.068-.174,3.036,3.036,0,0,0-.682-.97,3.784,3.784,0,0,0-.386-.3,2.939,2.939,0,0,0-1.538-.515,3.815,3.815,0,0,0-1.531.227,1.792,1.792,0,0,0-.568.349.007.007,0,0,1-.008.008c-.053.045-.1.1-.152.152a2.09,2.09,0,0,0-.243.371,2.307,2.307,0,0,0-.227.69s.008,0,0,.008a4.236,4.236,0,0,0-.061.561v.167a3.219,3.219,0,0,0,.379,1.614,2.109,2.109,0,0,0,.637.728,2.066,2.066,0,0,0,.417.243,2.5,2.5,0,0,0,.493.159,3.872,3.872,0,0,0,.546.061.5.5,0,0,1,.106.008,4.061,4.061,0,0,0,.621-.045c.106-.023.2-.038.3-.061s.189-.053.28-.083a2.762,2.762,0,0,0,.265-.106,2.625,2.625,0,0,0,1.341-1.243,2.537,2.537,0,0,0,.182-.493,1.494,1.494,0,0,0,.053-.265c.008-.091.023-.182.023-.28v-.053c-.008-.076-.015-.152-.03-.227m0,0a1.5,1.5,0,0,0-.061-.265,1.283,1.283,0,0,0-.083-.258,1.19,1.19,0,0,0-.068-.174,3.036,3.036,0,0,0-.682-.97,3.784,3.784,0,0,0-.386-.3,2.939,2.939,0,0,0-1.538-.515,3.815,3.815,0,0,0-1.531.227,1.792,1.792,0,0,0-.568.349.007.007,0,0,1-.008.008c-.053.045-.1.1-.152.152a2.09,2.09,0,0,0-.243.371,2.307,2.307,0,0,0-.227.69s.008,0,0,.008a4.236,4.236,0,0,0-.061.561v.167a3.219,3.219,0,0,0,.379,1.614,2.109,2.109,0,0,0,.637.728,2.066,2.066,0,0,0,.417.243,2.5,2.5,0,0,0,.493.159,3.872,3.872,0,0,0,.546.061.5.5,0,0,1,.106.008,4.061,4.061,0,0,0,.621-.045c.106-.023.2-.038.3-.061s.189-.053.28-.083a2.762,2.762,0,0,0,.265-.106,2.625,2.625,0,0,0,1.341-1.243,2.537,2.537,0,0,0,.182-.493,1.494,1.494,0,0,0,.053-.265c.008-.091.023-.182.023-.28v-.053c-.008-.076-.015-.152-.03-.227m0,0a1.5,1.5,0,0,0-.061-.265,1.283,1.283,0,0,0-.083-.258,1.19,1.19,0,0,0-.068-.174,3.036,3.036,0,0,0-.682-.97,3.784,3.784,0,0,0-.386-.3,2.939,2.939,0,0,0-1.538-.515,3.815,3.815,0,0,0-1.531.227,1.792,1.792,0,0,0-.568.349.007.007,0,0,1-.008.008c-.053.045-.1.1-.152.152a2.09,2.09,0,0,0-.243.371,2.307,2.307,0,0,0-.227.69s.008,0,0,.008a4.236,4.236,0,0,0-.061.561v.167a3.219,3.219,0,0,0,.379,1.614,2.109,2.109,0,0,0,.637.728,2.066,2.066,0,0,0,.417.243,2.5,2.5,0,0,0,.493.159,3.872,3.872,0,0,0,.546.061.5.5,0,0,1,.106.008,4.061,4.061,0,0,0,.621-.045c.106-.023.2-.038.3-.061s.189-.053.28-.083a2.762,2.762,0,0,0,.265-.106,2.625,2.625,0,0,0,1.341-1.243,2.537,2.537,0,0,0,.182-.493,1.494,1.494,0,0,0,.053-.265c.008-.091.023-.182.023-.28v-.053c-.008-.076-.015-.152-.03-.227" transform="translate(-29.65 -12.456)" fill="#181716"/><path d="M152.4,97.073a23.733,23.733,0,0,0-6.154-12.724,61.628,61.628,0,0,0,2.812-5.835c1.326-3.554,1.842-7.215.129-10.814-2.743-5.767-8.086-7.427-13.883-4.721a28.15,28.15,0,0,0-9.132,7.283A11.871,11.871,0,0,1,124.22,72.1a7.884,7.884,0,0,1-.377-2.186c.049-3.362.007-6.769-.176-10.127-.162-2.991-.318-5.982-.518-8.97q-.084-1.254-.18-2.506a26.4,26.4,0,0,0-3.092-11.421c-1.91-3.312-4.8-5.244-8.624-5.07a54.776,54.776,0,0,0-10.3,1.349c-5.479,1.311-10.405,3.842-13.883,8.488a67.613,67.613,0,0,0-3.683,6.063,43.994,43.994,0,0,1-4.456-1.4,2.963,2.963,0,0,1-1.357-1.554c-.246-.708-.479-1.423-.665-2.149a9.02,9.02,0,0,0-.889-2.549c-.182-.341-.674-1.152-.8-1.326a13.365,13.365,0,0,0-8.958-5.6,59.639,59.639,0,0,0-5.9-1.008,32.3,32.3,0,0,0-12.239,1.758A20.75,20.75,0,0,0,34.334,47.322c-1.864,5.267-.629,10.784-.523,16.187.106,5.085.614,10.163.932,15.232a14.358,14.358,0,0,1-.136,1.607c-1.046-1.372-1.879-2.38-2.637-3.456a10.888,10.888,0,0,0-6.927-4.9c-4.168-.849-8.132-.568-11.5,2.122C9.4,77.438,7.249,84.38,10.288,89.677c.735,1.273,1.341,2.6,2.046,3.956-1.046.182-1.925.273-2.759.5-3.812.985-7.071,2.69-8.753,6.525-1.106,2.493-.864,5.04-.6,7.669.318,3.145,1.288,5.919,3.645,8.01a63.189,63.189,0,0,0,5.373,3.918,13.37,13.37,0,0,0,1.554,7.4,9.218,9.218,0,0,0,6.29,5.176,10.517,10.517,0,0,0,8.465-1.94,1.57,1.57,0,0,1,2.478.25,7.287,7.287,0,0,0,5.2,2.417c8.92.235,11.193-6.911,10.685-13.762-.106-1.4-.371-2.812-.515-4.214q-.523-4.547-.985-9.1c-.144-1.538-.235-3.092-.364-4.736,2.478,0,4.744-.053,7,.053a1.725,1.725,0,0,1,1.235,1.046,33.316,33.316,0,0,1,.394,4.07c.144,2.2.3,4.38.371,6.57.106,3.85.28,7.692.174,11.542-.076,2.872-.6,5.729-.826,8.609-.038.515.44,1.069.667,1.591.53-.432,1.432-.818,1.538-1.349.781-4.009,1.629-8.025,2.023-12.072.462-4.8.47-9.632.7-14.459q.1-2.376.341-4.736c.03-.333.333-.644.508-.955a11.1,11.1,0,0,1,.811,3.274c.25,2.493.417,5,.674,7.495q.614,6.343,1.311,12.671a30.824,30.824,0,0,0,.667,4.32c.114.493.781.849,1.19,1.266.265-.493.758-.985.758-1.463-.038-3.2-.182-6.381-.3-9.564-.212-5.358-.5-10.731-.637-16.1-.106-3.782-.015-3.774,3.531-5.1a19.436,19.436,0,0,0,7.851-5.009c3.3-3.569,4.873-7.935,6.207-12.451.189-.637.477-1.235.818-2.092.394.477.69.69.765.955.584,1.751,1.1,3.516,1.682,5.252,1.97,5.9,4.8,11.148,10.481,14.361a2.466,2.466,0,0,1,.781,1.652c.311,2.213.477,4.448.72,6.661.318,3.024.69,6.048,1.008,9.079.349,3.441.652,6.9.985,10.36,1.591-.091,2.122-.826,1.986-2.258a36.236,36.236,0,0,1,.03-3.63c.06-1.062-.041-2.126-.028-3.188.013-1.113.058-2.731.067-3.844.036-4.583.127-7.654.529-11.709a7.793,7.793,0,0,0,.173,1.216c.037.436.049.873.054,1.31.009.9.137,2.758.183,3.661.094,1.86.127,2.757.181,4.62a34.966,34.966,0,0,0,.54,5.449c.161.9.4,2.107.58,3,.188.949.19,1.926.417,2.868a43.674,43.674,0,0,0,1.729,5.771c.114.288.8.364,1.228.553.167-.44.5-.9.462-1.311-.218-2.326-.635-4.632-.813-6.96a27.162,27.162,0,0,1,.111-3.266c.046-1.071,0-2.147.01-3.219q.039-3.452.321-6.9a2.693,2.693,0,0,1,.023-.349c0-.091.008-.182.015-.273.167-2.273.576-4.486.925-6.73.227-1.364,1.053-1.773,2.766-1.485a21.586,21.586,0,0,0-1.04,2.809q-.5,1.5-.9,3.031a43.747,43.747,0,0,0-1.031,6.135,43.155,43.155,0,0,0-.462,4.642,20.444,20.444,0,0,0,.554,4.844,6.7,6.7,0,0,0,.944,2.02,23.139,23.139,0,0,0,1.964,2.913,8.49,8.49,0,0,0,2.582,1.89,7.478,7.478,0,0,0,6.135.157,3.294,3.294,0,0,0,1.023-.5c1.122-1.167,2.16-.909,3.516-.212a13.248,13.248,0,0,0,4.517,1.281c3.509.386,6.472-1.084,9.42-2.834,3.478-2.076,5.464-8,4.774-11.853-.379-2.19-.061-2.812,2.046-3.206a10.73,10.73,0,0,1,1.281-.28c8.124-.864,11.011-7.692,10.117-14.315M75.485,68.738a58.273,58.273,0,0,1-1.978,10.943c-1.417,4.911-4.017,9.344-8.465,12.012a56.768,56.768,0,0,1-11.383,4.987,38.77,38.77,0,0,1-8.768,1.379c-2.986.265-3.873-.985-4.433-3.585a43.828,43.828,0,0,1-1.015-7.881c-.174-5.8-.03-11.61-.2-17.407-.2-6.919,1.25-13.641,2.956-20.2,1.425-5.411,4.592-9.973,10.284-11.906a30.945,30.945,0,0,1,13.1-1.834c0-.015.015-.015.023-.03a13.4,13.4,0,0,1,8.617,4.752.564.564,0,0,1,.068.091l.061.061c.053.061.1.121.212.273a20.711,20.711,0,0,1,1.431,2.681c.264.494,1.435,2.017.976,2.472-.217.214-.287.149-.583.089a11.322,11.322,0,0,0-1.256-.186,3.866,3.866,0,0,0-1.938.267A1.04,1.04,0,0,0,72.564,47c.184.525.786.757,1.273.9,1.657.485,3.352.862,5.023,1.3l2.554.666,1.331.347c.183.048,1.159.43,1.288.336A12.772,12.772,0,0,1,82.32,51.6c-3.236,1.152-6.5,2.228-9.731,3.425-1.131.42-.967,2.352.349,2.228a12.315,12.315,0,0,0,2.615-.53c0,4.032.265,8.048-.068,12.019m4.729-8.745c-.3,1.811-.621,3.607-.925,5.373-.735-.394-1.493-4.365-1.281-7.359,1.94,0,2.455.493,2.205,1.986M117.5,82.167a46.227,46.227,0,0,1-3.145,7.76c-1.978,3.478-5.464,5.275-9.011,6.79a24.158,24.158,0,0,1-5.661,1.66c-4.289.667-6.9-2.031-9.276-5.032-3.812-4.782-5.517-10.473-6.82-16.286a78.526,78.526,0,0,1-1.652-11.026c-.159-2.175.47-4.4.773-6.889,1.766.508,3.486,1.008,5.229,1.455a1.86,1.86,0,0,0,1.588-.083,1.06,1.06,0,0,0-.141-1.917c-2.812-1.031-5.653-1.993-8.488-2.971-.371-.129-.735-.3-1.106-.424,0-.174,0-.333.015-.5,2.842-1.144,5.691-2.281,8.533-3.456a5.716,5.716,0,0,0,1.122-.781,4.213,4.213,0,0,0-.962-.909c-3.031-1.584-3.107-1.622-1.235-4.668,3.539-5.813,8.768-8.8,15.558-8.427,6.161.326,14.452,6.207,14.619,14.634.1,4.6,1.084,9.185,1.159,13.808.106,5.76.826,11.625-1.1,17.263" transform="translate(0 -7.702)" fill="#181716"/><path d="M108.392,14.717c.667,3.19-1.531,5.585-4.812,5.714-.386.015-.773.015-1.159.015-2.289-.015-3.531-.962-3.615-2.743a4.273,4.273,0,0,1,3.774-3.933c1.25-.038,2.508,0,4.191,0q-.249-1.075-.5-2.151-.242-1.039-.485-2.077-.236-1.014-.474-2.027t-.467-2a5.764,5.764,0,0,0-.2-.671,3.878,3.878,0,0,0-.27-.716c-.042-.07-.084-.142-.128-.211a.542.542,0,0,1-.054-.093c-.108-.344-.19-.7-.286-1.047s-.2-.721-.3-1.083c-.064-.23-.128-.462-.191-.693l-.1-.346a2.092,2.092,0,0,1-.092-.336L103.632,0c1.754.931,3.491,1.915,5.269,2.793-.313.208-.629.589-1.022.621a9.317,9.317,0,0,0-1.091-.054,7.784,7.784,0,0,0-1.33.467c.993,3.622,2.167,7.215,2.933,10.89" transform="translate(-23.927)" fill="#181716"/><path d="M87.068,48.9a2.622,2.622,0,0,1-2.577,2.627,2.7,2.7,0,0,1-2.712-2.69c0-.058,0-.117.005-.175A2.542,2.542,0,0,1,84.4,46.19l.04,0a2.586,2.586,0,0,1,2.629,2.543c0,.055,0,.108,0,.163Z" transform="translate(-19.804 -11.185)" fill="#181716"/><path d="M128.08,54.2a2.826,2.826,0,0,1-3.171,2.577c-1.591-.053-2.521-1.181-2.467-2.972.053-1.658.928-2.4,2.786-2.361a2.993,2.993,0,0,1,2.852,2.759Z" transform="translate(-29.651 -12.459)" fill="#181716"/><path d="M128.08,54.2a2.826,2.826,0,0,1-3.171,2.577c-1.591-.053-2.521-1.181-2.467-2.972.053-1.658.928-2.4,2.786-2.361a2.993,2.993,0,0,1,2.852,2.759Z" transform="translate(-29.651 -12.459)" fill="#181716"/></g></svg>