<svg xmlns="http://www.w3.org/2000/svg" xmlns:xlink="http://www.w3.org/1999/xlink" width="382" height="104.83" viewBox="0 0 382 104.83"><defs><clipPath id="a"><rect width="382" height="104.83" fill="none"/></clipPath></defs><path d="M195.948,18.556h13.434v2.3H198.669v8.866h9.059v2.3h-9.059V42.364h-2.721Z" transform="translate(-109.887 -10.406)" fill="#181716"/><path d="M237.516,18.556H250.95v2.3H240.238v8.6H249.3v2.3h-9.059v8.275h10.885v2.332H237.516Z" transform="translate(-133.199 -10.406)" fill="#181716"/><path d="M291.372,19.334,290.2,21.5a12.176,12.176,0,0,0-5.649-1.314c-2.584,0-4.651,1.347-4.651,3.744,0,2.561,2.584,3.579,5.236,4.5,4.133,1.445,7.509,3.021,7.509,7.159,0,4.368-3.686,6.666-8.4,6.666a16.014,16.014,0,0,1-7.509-1.937l1.24-2.2a13.617,13.617,0,0,0,6.3,1.609c2.824.033,5.649-1.314,5.649-4.1,0-2.43-1.895-3.547-5.753-4.86-4.065-1.412-6.924-2.989-6.924-6.83,0-4.039,3.341-6.272,7.2-6.272a15.022,15.022,0,0,1,6.924,1.675" transform="translate(-155.191 -9.902)" fill="#181716"/><path d="M325.712,20.921h-6.235V18.557h15.191v2.364h-6.235V42.364h-2.721Z" transform="translate(-179.164 -10.406)" fill="#181716"/><line x2="30.451" transform="translate(167.537 23.775)" fill="none" stroke="#181716" stroke-miterlimit="10" stroke-width="2"/><g clip-path="url(#a)"><path d="M52.086,42.2l-2,5.54-7.808,3.848-9.929-3.069L20.793,74.47,3.4,52.928,0,39.6V25.154L10.095,12.94l3.46-.077L20.524,0s.947,7.1,1.4,9.761a52.778,52.778,0,0,0,5.631-.5l15.393,8.31L46.9,25.655l.335,5.689Z" transform="translate(0 -0.001)" fill="#181716"/><path d="M218.129,99.009V122.9a.635.635,0,0,1-.7.711h-3.743a1.192,1.192,0,0,1-.879-.391L200.975,108.57v14.005a.634.634,0,0,1-.7.711h-4.359a.634.634,0,0,1-.7-.711V98.76a.634.634,0,0,1,.7-.711h4.174a1.191,1.191,0,0,1,.879.391l11.362,14.573v-14a.635.635,0,0,1,.7-.711h4.393a.635.635,0,0,1,.7.711" transform="translate(-109.475 -54.986)" fill="#181716"/><path d="M270.8,126.866c-.07.426-.281.675-.7.675H259.549a4.264,4.264,0,0,0,4.078,2.311,5.453,5.453,0,0,0,3.445-1.138.6.6,0,0,1,.984.213l1.511,2.773a.707.707,0,0,1-.176,1,10.109,10.109,0,0,1-6.4,1.849c-5.167,0-9.033-3.732-9.033-8.5a8.336,8.336,0,0,1,8.577-8.5c5.1,0,8.3,3.768,8.3,8.673a4.086,4.086,0,0,1-.036.64m-11.283-2.7h6.046l-.035-.142a2.771,2.771,0,0,0-2.777-2.1,3.063,3.063,0,0,0-3.234,2.239" transform="translate(-142.421 -65.924)" fill="#181716"/><path d="M321.783,118.691l-4.262,14.965a.834.834,0,0,1-.808.569h-4.175a.85.85,0,0,1-.844-.533l-3.9-9.1-3.9,9.1a.849.849,0,0,1-.844.533h-3.9a.833.833,0,0,1-.808-.569l-4.674-14.965c-.176-.5.035-.817.562-.817h5.2a.792.792,0,0,1,.809.569l2.253,7.926,2.878-8.228a.763.763,0,0,1,.809-.534l3.758-.053a.849.849,0,0,1,.843.534l2.749,8.566,2.5-8.175a.757.757,0,0,1,.773-.6h4.429c.528,0,.738.32.563.817" transform="translate(-164.652 -65.924)" fill="#181716"/><path d="M218.129,181.453v23.887a.635.635,0,0,1-.7.711h-3.743a1.193,1.193,0,0,1-.879-.391l-11.828-14.645V205.02a.634.634,0,0,1-.7.711h-4.359a.634.634,0,0,1-.7-.711V181.2a.634.634,0,0,1,.7-.711h4.174a1.191,1.191,0,0,1,.879.391l11.362,14.573v-14a.635.635,0,0,1,.7-.711h4.393a.635.635,0,0,1,.7.711" transform="translate(-109.475 -101.221)" fill="#181716"/><path d="M270.8,209.31c-.07.426-.281.675-.7.675H259.549a4.264,4.264,0,0,0,4.078,2.311,5.453,5.453,0,0,0,3.445-1.138.6.6,0,0,1,.984.213l1.511,2.773a.707.707,0,0,1-.176,1,10.109,10.109,0,0,1-6.4,1.849c-5.167,0-9.033-3.732-9.033-8.5a8.336,8.336,0,0,1,8.577-8.5c5.1,0,8.3,3.768,8.3,8.673a4.086,4.086,0,0,1-.036.64m-11.283-2.7h6.046l-.035-.142a2.771,2.771,0,0,0-2.777-2.1,3.063,3.063,0,0,0-3.234,2.239" transform="translate(-142.421 -112.159)" fill="#181716"/><path d="M321.783,201.135,317.521,216.1a.834.834,0,0,1-.808.569h-4.175a.85.85,0,0,1-.844-.533l-3.9-9.1-3.9,9.1a.849.849,0,0,1-.844.533h-3.9a.833.833,0,0,1-.808-.569l-4.674-14.965c-.176-.5.035-.817.562-.817h5.2a.792.792,0,0,1,.809.569l2.253,7.926,2.878-8.228a.763.763,0,0,1,.809-.534l3.758-.053a.849.849,0,0,1,.843.534l2.749,8.566,2.5-8.175a.757.757,0,0,1,.773-.6h4.429c.528,0,.738.32.563.817" transform="translate(-164.652 -112.159)" fill="#181716"/><path d="M408.129,111.091c0,7.5-5.2,12.512-13.006,12.512H385.106a.635.635,0,0,1-.7-.711V99.326a.634.634,0,0,1,.7-.711h10.017c7.8,0,13.006,4.976,13.006,12.476m-6.011.071c0-4.372-2.671-7.287-7.346-7.287h-4.464v14.467h4.464c4.675,0,7.346-2.879,7.346-7.18" transform="translate(-215.574 -55.303)" fill="#181716"/><path d="M443.783,100.373a3.518,3.518,0,0,1,7.03,0,3.391,3.391,0,0,1-3.55,3.413,3.333,3.333,0,0,1-3.48-3.413m.773,21.612v-14.93a.635.635,0,0,1,.7-.711h4.148a.635.635,0,0,1,.7.711v14.93a.635.635,0,0,1-.7.711H445.26a.635.635,0,0,1-.7-.711" transform="translate(-248.874 -54.395)" fill="#181716"/><path d="M477.837,118.371l-.316,4.088c-.035.5-.352.675-.809.569a3.5,3.5,0,0,0-.949-.107c-2.179,0-3.761,1.209-3.761,3.484v7.109a.635.635,0,0,1-.7.711h-4.883a.634.634,0,0,1-.7-.711v-14.93a.634.634,0,0,1,.7-.711h3.934a.658.658,0,0,1,.7.675l.176,2.346c.527-1.955,2.566-3.341,5.2-3.341a5.893,5.893,0,0,1,.809.036c.457.036.632.355.6.782" transform="translate(-261.173 -65.924)" fill="#181716"/><path d="M510.163,126.866c-.07.426-.281.675-.7.675H498.915a4.264,4.264,0,0,0,4.078,2.311,5.454,5.454,0,0,0,3.445-1.138.6.6,0,0,1,.984.213l1.512,2.773a.708.708,0,0,1-.176,1,10.109,10.109,0,0,1-6.4,1.849c-5.167,0-9.034-3.732-9.034-8.5a8.337,8.337,0,0,1,8.577-8.5c5.1,0,8.3,3.768,8.3,8.673a4.079,4.079,0,0,1-.036.64m-11.283-2.7h6.046l-.035-.142a2.771,2.771,0,0,0-2.777-2.1,3.063,3.063,0,0,0-3.234,2.239" transform="translate(-276.658 -65.924)" fill="#181716"/><path d="M535.506,126.048c0-4.763,3.832-8.5,8.964-8.5a12.909,12.909,0,0,1,6.243,1.463c.387.249.457.6.211,1.1l-1.477,2.915a.7.7,0,0,1-1.019.249,9.109,9.109,0,0,0-3.29-.646c-2.391,0-3.937,1.422-3.937,3.413s1.547,3.413,3.937,3.413a8.426,8.426,0,0,0,3.385-.864.618.618,0,0,1,.949.285l1.476,2.915a.664.664,0,0,1-.211.96,12.121,12.121,0,0,1-6.268,1.788c-5.132,0-8.964-3.732-8.964-8.5" transform="translate(-300.313 -65.924)" fill="#181716"/><path d="M574.953,121.1v-5.261h-2.566a.634.634,0,0,1-.7-.711v-3.306a.634.634,0,0,1,.7-.711h2.742v-4.905a.635.635,0,0,1,.7-.711H579.8a.635.635,0,0,1,.7.711v4.905h4.956a.634.634,0,0,1,.7.711v3.306a.634.634,0,0,1-.7.711h-4.956v4.585c0,1.706,1.16,2.275,2.5,2.275a4.8,4.8,0,0,0,1.793-.391.616.616,0,0,1,.949.32l1.3,2.879c.176.426.07.711-.352,1.031a8.97,8.97,0,0,1-5.026,1.244c-4.253,0-6.714-2.382-6.714-6.683" transform="translate(-320.601 -59.161)" fill="#181716"/><path d="M605.284,126.048a8.884,8.884,0,1,1,8.893,8.5,8.583,8.583,0,0,1-8.893-8.5m12.162,0a3.289,3.289,0,1,0-3.268,3.413,3.284,3.284,0,0,0,3.268-3.413" transform="translate(-339.444 -65.924)" fill="#181716"/><path d="M663.65,118.371l-.316,4.088c-.035.5-.352.675-.808.569a3.5,3.5,0,0,0-.949-.107c-2.179,0-3.761,1.209-3.761,3.484v7.109a.635.635,0,0,1-.7.711h-5.024a.634.634,0,0,1-.7-.711v-14.93a.634.634,0,0,1,.7-.711h4.075a.658.658,0,0,1,.7.675l.176,2.346c.527-1.955,2.566-3.341,5.2-3.341a5.894,5.894,0,0,1,.809.036c.457.036.632.355.6.782" transform="translate(-365.298 -65.924)" fill="#181716"/><path d="M679.5,132.8a.686.686,0,0,1-.246-1l1.547-2.844a.591.591,0,0,1,.949-.249,9.93,9.93,0,0,0,4.921,1.422c.879,0,1.3-.249,1.3-.782,0-.6-.773-.817-2.5-1.209-2.39-.533-5.835-1.706-5.835-5.19,0-3.306,2.812-5.4,7.1-5.4a14,14,0,0,1,6.538,1.564.636.636,0,0,1,.246.96l-1.477,2.843a.636.636,0,0,1-.984.249,9.777,9.777,0,0,0-4.359-1.209c-.914,0-1.336.249-1.336.782,0,.569.773.746,2.918,1.208,1.969.426,5.413,1.28,5.413,5.048,0,3.235-2.5,5.545-7.7,5.545a12.679,12.679,0,0,1-6.5-1.742" transform="translate(-380.859 -65.924)" fill="#181716"/><path d="M401.732,181.327v3.839a.635.635,0,0,1-.7.711h-10.72v4.8h9.1a.635.635,0,0,1,.7.712v3.839a.634.634,0,0,1-.7.711h-9.1v8.958a.634.634,0,0,1-.7.711h-4.5a.634.634,0,0,1-.7-.711V181.327a.634.634,0,0,1,.7-.711h15.923a.635.635,0,0,1,.7.711" transform="translate(-215.574 -101.29)" fill="#181716"/><path d="M427.7,182.374a3.518,3.518,0,0,1,7.03,0,3.391,3.391,0,0,1-3.55,3.412,3.333,3.333,0,0,1-3.48-3.412m.773,21.612V189.057a.635.635,0,0,1,.7-.711h4.147a.635.635,0,0,1,.7.711v14.929a.634.634,0,0,1-.7.711h-4.147a.635.635,0,0,1-.7-.711" transform="translate(-239.857 -100.382)" fill="#181716"/><path d="M449.633,204.395V180.437a.635.635,0,0,1,.7-.711h4.148a.635.635,0,0,1,.7.711v23.958a.635.635,0,0,1-.7.711h-4.148a.635.635,0,0,1-.7-.711" transform="translate(-252.155 -100.791)" fill="#181716"/><path d="M498.954,207.2v8.318a.635.635,0,0,1-.7.711H494.1a.635.635,0,0,1-.7-.711v-7.5c0-2.062-1.054-3.412-2.636-3.412-1.722,0-2.847,1.315-2.847,3.412v7.5a.634.634,0,0,1-.7.711h-4.148a.634.634,0,0,1-.7-.711v-7.5c0-2.062-1.125-3.412-2.6-3.412-1.758,0-2.882,1.315-2.882,3.412v7.5a.635.635,0,0,1-.7.711h-4.148a.635.635,0,0,1-.7-.711V200.585a.635.635,0,0,1,.7-.711h3.3a.659.659,0,0,1,.7.675s.14,1.041.22.864a6.168,6.168,0,0,1,4.464-1.859,7.1,7.1,0,0,1,5.659,2.559,6.134,6.134,0,0,1,5.027-2.559,7.293,7.293,0,0,1,7.557,7.642" transform="translate(-264.32 -111.911)" fill="#181716"/><path d="M538.252,214.8a.686.686,0,0,1-.247-1l1.547-2.843a.591.591,0,0,1,.949-.249,9.926,9.926,0,0,0,4.921,1.422c.879,0,1.3-.249,1.3-.782,0-.6-.773-.817-2.5-1.209-2.39-.533-5.835-1.706-5.835-5.189,0-3.306,2.812-5.4,7.1-5.4a14,14,0,0,1,6.538,1.564.636.636,0,0,1,.246.96l-1.477,2.844a.636.636,0,0,1-.984.249,9.776,9.776,0,0,0-4.359-1.209c-.914,0-1.336.249-1.336.782,0,.569.773.747,2.918,1.209,1.969.426,5.413,1.28,5.413,5.047,0,3.235-2.5,5.545-7.7,5.545a12.678,12.678,0,0,1-6.5-1.742" transform="translate(-301.649 -111.91)" fill="#181716"/><path d="M615.5,181.407v3.839a.634.634,0,0,1-.7.711H604.078v5.086h9.1a.634.634,0,0,1,.7.711v3.839a.634.634,0,0,1-.7.711h-9.1v8.67a.634.634,0,0,1-.7.711h-4.5a.634.634,0,0,1-.7-.711V181.407a.634.634,0,0,1,.7-.711H614.8a.634.634,0,0,1,.7.711" transform="translate(-335.456 -101.335)" fill="#181716"/><path d="M656.07,208.947c-.07.426-.281.675-.7.675H644.822a4.263,4.263,0,0,0,4.077,2.311,5.451,5.451,0,0,0,3.445-1.138.6.6,0,0,1,.984.214l1.512,2.772a.708.708,0,0,1-.176,1,10.11,10.11,0,0,1-6.4,1.849c-5.167,0-9.034-3.732-9.034-8.5a8.336,8.336,0,0,1,8.577-8.5c5.1,0,8.3,3.767,8.3,8.673a4.062,4.062,0,0,1-.036.64m-11.283-2.7h6.046l-.035-.142a2.771,2.771,0,0,0-2.777-2.1,3.063,3.063,0,0,0-3.234,2.239" transform="translate(-358.483 -111.955)" fill="#181716"/><path d="M681.75,214.883a.686.686,0,0,1-.246-1l1.547-2.843a.591.591,0,0,1,.949-.25,9.925,9.925,0,0,0,4.921,1.422c.879,0,1.3-.249,1.3-.782,0-.6-.773-.817-2.5-1.209-2.39-.533-5.835-1.706-5.835-5.189,0-3.306,2.812-5.4,7.1-5.4a10.518,10.518,0,0,1,5.667,1.569.635.635,0,0,1,.245.96l-1.476,2.844a.637.637,0,0,1-.984.249,6.56,6.56,0,0,0-3.488-1.214c-.914,0-1.336.249-1.336.782,0,.569.773.747,2.917,1.209,1.969.426,5.413,1.28,5.413,5.047,0,3.235-2.5,5.545-7.7,5.545a12.68,12.68,0,0,1-6.5-1.742" transform="translate(-382.123 -111.955)" fill="#181716"/><path d="M717.3,203.179v-5.261h-1.209a.634.634,0,0,1-.7-.711V193.9a.635.635,0,0,1,.7-.711h1.384v-4.9a.635.635,0,0,1,.7-.711h3.972a.635.635,0,0,1,.7.711v4.9h3.7a.635.635,0,0,1,.7.711v3.305a.635.635,0,0,1-.7.711h-3.7V202.5c0,1.706,1.16,2.275,2.5,2.275a4.811,4.811,0,0,0,1.793-.391.616.616,0,0,1,.949.32l1.3,2.879c.176.426.07.711-.352,1.031a8.969,8.969,0,0,1-5.026,1.244c-4.253,0-6.714-2.382-6.714-6.683" transform="translate(-401.188 -105.192)" fill="#181716"/><path d="M747.869,182.373a3.518,3.518,0,0,1,7.03,0,3.391,3.391,0,0,1-3.55,3.412,3.333,3.333,0,0,1-3.48-3.412m.773,21.612V189.056a.635.635,0,0,1,.7-.711h4.148a.635.635,0,0,1,.7.711v14.929a.635.635,0,0,1-.7.711h-4.148a.635.635,0,0,1-.7-.711" transform="translate(-419.406 -100.381)" fill="#181716"/><path d="M784.728,201.135,777.8,216.064a.788.788,0,0,1-.808.533h-2.953a.789.789,0,0,1-.809-.533L766.415,201.1c-.211-.5,0-.818.527-.818h4.5a.764.764,0,0,1,.809.533l3.48,8.531,3.339-8.5a.835.835,0,0,1,.809-.569H784.2c.527,0,.738.355.527.853" transform="translate(-429.761 -112.318)" fill="#181716"/><path d="M826.975,200.585v14.929a.635.635,0,0,1-.7.711h-3.551a.667.667,0,0,1-.738-.676l-.141-1.244a6.383,6.383,0,0,1-4.851,2.239c-4.5,0-7.733-3.661-7.733-8.5s3.41-8.5,7.909-8.5a7.155,7.155,0,0,1,4.429,1.493l.105-.533a.679.679,0,0,1,.738-.64h3.831a.635.635,0,0,1,.7.711m-5.308,7.465a3.238,3.238,0,0,0-3.41-3.413,3.413,3.413,0,0,0,0,6.825,3.237,3.237,0,0,0,3.41-3.413" transform="translate(-453.834 -111.91)" fill="#181716"/><path d="M857.121,204.394V180.436a.635.635,0,0,1,.7-.711h4.148a.635.635,0,0,1,.7.711v23.958a.635.635,0,0,1-.7.711h-4.148a.635.635,0,0,1-.7-.711" transform="translate(-480.675 -100.79)" fill="#181716"/></g></svg>