<svg xmlns="http://www.w3.org/2000/svg" width="69.513" height="78.056" viewBox="0 0 69.513 78.056">
    <g transform="translate(-138.22 -17.11)">
        <ellipse cx="4.213" cy="4.213" rx="4.213" ry="4.213" transform="translate(187.053 36.908)" fill="#EC8D32"/>
        <ellipse cx="4.213" cy="4.213" rx="4.213" ry="4.213" transform="translate(199.307 58.95)" fill="#EC8D32"/>
        <ellipse cx="4.213" cy="4.213" rx="4.213" ry="4.213" transform="translate(195.479 22.867)" fill="#EC8D32"/>
        <g transform="translate(1926.279 -181.529)">
            <path d="M169.667,313.627a15.562,15.562,0,0,0,11.008-4.542" transform="translate(-1924.504 -52.544)"
                  fill="none" stroke="#EC8D32" stroke-miterlimit="10" stroke-width="4"/>
            <line y2="62.445" transform="translate(-1786.059 214.25)" fill="none" stroke="#EC8D32"
                  stroke-miterlimit="10" stroke-width="4"/>
            <path d="M48.187,175.3a15.613,15.613,0,0,0-29.579,6.978H3" transform="translate(-1789.057 63.192)"
                  fill="none" stroke="#EC8D32" stroke-miterlimit="10" stroke-width="4"/>
            <line y2="31.223" transform="translate(-1754.838 198.639)" fill="none" stroke="#EC8D32"
                  stroke-miterlimit="10" stroke-width="4"/>
            <path d="M101.948,166.669a15.611,15.611,0,0,1,15.611,15.611H86.337a15.611,15.611,0,0,0,15.611,15.611V166.669"
                  transform="translate(-1856.785 63.193)" fill="none" stroke="#EC8D32" stroke-miterlimit="10"
                  stroke-width="4"/>
        </g>
    </g>
</svg>