<svg xmlns="http://www.w3.org/2000/svg" width="32.193" height="28.973" viewBox="0 0 32.193 28.973"><g transform="translate(-561.404 -3598)"><path d="M17635,24091.4a29.174,29.174,0,0,0,6.936-5.182c2.207-2.279,2.713-4.312,2.486-6.432a7.106,7.106,0,0,1-1.73.215,7,7,0,1,1,6.82-8.6v0a19.45,19.45,0,0,1-4.764,17.67,32.782,32.782,0,0,1-7.959,5.9Z" transform="translate(-17073.598 -20468)" fill="#FFA53F"/><path d="M17635,24091.4a29.174,29.174,0,0,0,6.936-5.182c2.207-2.279,2.713-4.312,2.486-6.432a7.106,7.106,0,0,1-1.73.215,7,7,0,1,1,6.82-8.6v0a19.45,19.45,0,0,1-4.764,17.67,32.782,32.782,0,0,1-7.959,5.9Z" transform="translate(-17056.398 -20468)" fill="#FFA53F"/></g></svg>