<svg xmlns="http://www.w3.org/2000/svg" xmlns:xlink="http://www.w3.org/1999/xlink" width="124.227" height="127.527" viewBox="0 0 124.227 127.527"><defs><clipPath id="a"><rect width="124.227" height="127.527" fill="#181716"/></clipPath></defs><path d="M75.795,75.795l-.264-.264Z" transform="translate(-47.544 -47.544)" fill="#181716"/><path d="M51.476,54.815l.132-.132-.66-.528Z" transform="translate(-32.07 -34.088)" fill="#181716"/><g clip-path="url(#a)"><path d="M19.9,115.7c-.132.132-.66-.4-.66.4.263-.792.528.132.66-.4" transform="translate(-12.111 -72.798)" fill="#181716"/><path d="M16.033,125.054v.132c.264.132.132,0,0-.132" transform="translate(-10.092 -78.716)" fill="#181716"/><path d="M100.827,21.376" transform="translate(-63.467 -13.455)" fill="#181716"/><path d="M140.322,343.942h0a.99.99,0,0,0-.66-.132Z" transform="translate(-87.912 -216.415)" fill="#181716"/><path d="M114.009,49.879" transform="translate(-71.764 -31.397)" fill="#181716"/><path d="M249.752,242.626" transform="translate(-157.209 -152.723)" fill="#181716"/><path d="M156.222,292.281h0a1,1,0,0,1-.528-.132Z" transform="translate(-98.003 -183.896)" fill="#181716"/><path d="M244.052,248.683" transform="translate(-153.621 -156.536)" fill="#181716"/><path d="M281.817,254.963a.685.685,0,0,0,.528-.264c.132-.264.132-.4.264-.528-.528-.528-.4.792-.792.792" transform="translate(-177.392 -159.912)" fill="#181716"/><path d="M299.091,224.628c-.132-.132-.132-.4-.4-.528-.264.66-.132.924.4.528" transform="translate(-187.933 -141.062)" fill="#181716"/><path d="M24.363,128.973c-.132.132-.66-.264-.528.4.132-.66.4.132.528-.4" transform="translate(-14.99 -81.183)" fill="#181716"/><path d="M262.578,226.277l.132-.4c0,.132,0,.132-.132.4" transform="translate(-165.282 -142.183)" fill="#181716"/><path d="M274.465,266.8c0-.264.132-.264.264-.4l-.528-.264c-.132.4-.132.792.264.66" transform="translate(-172.549 -167.525)" fill="#181716"/><path d="M21.021,138.236v.132c.264.132.132,0,0-.132" transform="translate(-13.232 -87.014)" fill="#181716"/><path d="M96.2,32.777" transform="translate(-60.552 -20.632)" fill="#181716"/><path d="M300.12,229.088h0Z" transform="translate(-188.83 -144.202)" fill="#181716"/><path d="M301,227.557c-.528-.264-.528.4-.66.528.264,0,.4-.264.66-.528" transform="translate(-189.054 -143.199)" fill="#181716"/><path d="M312.654,196.706c-.132-.132-.4-.132-.4-.4-.264.132,0,.528,0,.792Z" transform="translate(-196.48 -123.569)" fill="#181716"/><path d="M308.4,207c-.132.792-.132,2.112.264,2.244Z" transform="translate(-194.078 -130.297)" fill="#181716"/><path d="M272.91,266.761v0Z" transform="translate(-171.786 -167.749)" fill="#181716"/><path d="M310.676,197.735a5.706,5.706,0,0,0,.132.66c.132-.264.132-.4-.132-.66" transform="translate(-195.558 -124.466)" fill="#181716"/><path d="M289.655,247.3a.485.485,0,0,0,.132-.4.578.578,0,0,0-.132.4" transform="translate(-182.326 -155.414)" fill="#181716"/><path d="M75.175,86.219l.264.264.132-.132Z" transform="translate(-47.32 -54.272)" fill="#181716"/><path d="M154.93,340.735h0a.99.99,0,0,0-.66-.132Z" transform="translate(-97.107 -214.396)" fill="#181716"/><path d="M49.879,67.693l.528.66.132-.132Z" transform="translate(-31.397 -42.61)" fill="#181716"/><path d="M309.013,199.516l-.132.264c-.264.264-.528.4-.264.792-.264.132-.528-.4-.792,0,.4.528,1.32,0,1.716-.792h.132a1.009,1.009,0,0,1-.66-.264" transform="translate(-193.763 -125.587)" fill="#181716"/><path d="M312.814,200.229h0Z" transform="translate(-196.904 -126.036)" fill="#181716"/><path d="M265.428,274.824v0Z" transform="translate(-167.076 -172.908)" fill="#181716"/><path d="M270.773,210.967a1.823,1.823,0,0,0,.4-.528c-.132-.264-.264.264-.4.528" transform="translate(-170.441 -132.417)" fill="#181716"/><path d="M270.773,211.986" transform="translate(-170.441 -133.437)" fill="#181716"/><path d="M270.757,208.687l-.132-.264c-.132.528-.132.528.132.264" transform="translate(-170.293 -131.194)" fill="#181716"/><path d="M110.447,59.5" transform="translate(-69.522 -37.452)" fill="#181716"/><path d="M256.878,232.65c.264,0,.4-.528.528-.792-.132-.264-.264.66-.528.792" transform="translate(-161.694 -145.916)" fill="#181716"/><path d="M250.918,242.177l.264-.264h-.264c-.132.132-.264.4,0,.264" transform="translate(-157.847 -152.274)" fill="#181716"/><path d="M154.646,206.83c.264-.66.528-1.32.792-2.112.264-.66.4-1.452.66-2.244a4.848,4.848,0,0,0,.792-1.848l.132-.4-2.64.792a1.67,1.67,0,0,1-.132.792,7.422,7.422,0,0,1-.528,1.584c.264.132.4-.264.66,0a1.957,1.957,0,0,1-.132.792c-.4,0-.792-.264-1.188.792a1.159,1.159,0,0,1,.132-.924c.132-.264.264-.528-.132-.4a2.945,2.945,0,0,1,.132-1.452,1.877,1.877,0,0,0,.264-.792l-.4.132a1.953,1.953,0,0,0-.132.924,5.814,5.814,0,0,1-.264,1.32c.264.132.4-.264.4.264,0,1.188-.924,1.188-1.056,1.452,0-.132.132-.4.132-.528-.264.264-.264.528-.4.792a3.352,3.352,0,0,1-.264.924c-.66-.132.528-1.188.264-1.584l-.66.4c-.528,1.056.264.528-.4,1.584l-.132-.264a1.023,1.023,0,0,1-.132.4,1.332,1.332,0,0,1-.132.4c.132.132.528.132.792-.528a.588.588,0,0,1,0,.66,1.853,1.853,0,0,0-.528.924c.132.528.132-.4.528-.264.264,0,0,.66-.264,1.188-.264.4-.4.4-.528.4s-.264-.132-.4,0l.264-.4.264-.132c.264-1.056-.792.132-.66-.66-.4.4-.4.528-.4.792v.4c.132-.132.264.264.4.132,0,.792-.264.924-.66,1.056a1,1,0,0,0-1.056.66c.66.132-.4,1.98.66,1.452a2.648,2.648,0,0,1-.528,1.056c-.132-.528-.66.264-.528-.4l-.264.4.132-.924c-.528.264-1.32.924-1.584.924-.264.66.4,0,0,.792,0-.4-.4-.132-.66.264.528-.528.4.4.264.792-.528.528-1.188.792-1.188.66l.132-.66c-.132.4-.264,0-.528.4,0,.264.132.792.132,1.056-.264.4-.66.4-.792.66a.579.579,0,0,0,.132-.4l.132-.264v-.132c-.66.792-.528-.264-1.188.528v.4H142.1c0,.264-.4.528-.528.792l-.132-.132c-.264.4-.264,1.056-.924,1.056.66.132.4-.4,1.056-.66.528,0-.264.792-.4.924-.132-.264-.4,0-.528.264-.264.264-.528.66-.66.792a4.666,4.666,0,0,0-.792.132v.4c-.528-.4-.66.66-1.32.924.132-.4-.132-.528-.4-.4.4,0,.264.264.132.528s-.4.528-.132.66c-.924.4-.132-.66-.66-.792-.264.66-1.056.4-1.056,1.056.66-.264.132.4,0,.66-.792.4,0-.264-.66-.132-.264.264-.528.792,0,.66a1.319,1.319,0,0,0-.66.528l-.4.264c-.132.132-.264.132-.528.132-.132-.132,0-.264.264-.4s.4-.264.264-.264a1.829,1.829,0,0,0-.528.4l-.132.4c0,.264,0,.528-.528.792.528-.132.4.66-.132,1.056-.66.264-.528.132-.4,0,.264-.132.528-.4.132-.528l-.264.132-.264.132c-.528-.132-.132-.4.132-.792s.528-.792.132-.792l-.264.264-.264.264c0-.132.132-.528-.132-.528,0,.4-1.188.66-1.188.792,0,.4.4-.264.4,0-.528.4-.528.924-1.584,1.056.4-.4-.4-.264-.264-.528-.528,0,0,.4-.66.528v-.264c-.528.264-1.188.4-1.848.66a2.448,2.448,0,0,1-.924.264c-.4.132-.66.264-1.056.4a6.444,6.444,0,0,0-.924.4c-.264.132-.66.264-.924.4l-1.584.792a1.959,1.959,0,0,0-.924-.132h-1.584c.528,0,.132.264-.264.4l-.66-.264h-.528c-.264,0-.4.132-.66.132a9.147,9.147,0,0,0-1.056.4l-.264-.264c-.66-.264-.66.264-.924.264l-.4-.264-.132.264a1.128,1.128,0,0,1-.924,0c-.264,0-.528-.132-.4-.4-.264.132-.528.132-.132.264a12.853,12.853,0,0,0-1.584-.264,9.913,9.913,0,0,0-1.981,0c.528.132.528.264.528.528-.264.4-.264-.132-.792.132,0-.132-.528-.4.132-.4a8.623,8.623,0,0,0-2.64-.66c-.528-.132-.924-.132-1.452-.264s-.924-.132-1.453-.264c-.4,0-.264.132-.528.132a4.437,4.437,0,0,0-1.848-.66,11.636,11.636,0,0,1-1.98-.66c.264.264-.4.66-1.056.4-.924,0-.132-.66-.66-1.056a3.875,3.875,0,0,1-1.32-.4,1.672,1.672,0,0,1-.792-.132l-.792-.4h.132c-.4-.264-.66-.66-1.188-.792-.4.264-1.188-.528-1.584-.4v-.132l-.132.264-.132-.132-.264-.264a1.906,1.906,0,0,0-.4-.264c.264,0,.4-.132.528,0-.66-.66-.4,0-.924-.132-.66-.132-.528-.4-.66-.66.264,0,.4.264.528.4.4,0-.264-.264-.264-.4-.132-.132-.4.132-.792-.132s-1.188-.792-.924-.924a.686.686,0,0,1-.528-.264c-.132-.132-.264-.132-.528-.264a1.812,1.812,0,0,1,.4.528c.132.132.264.264.264.4-.264-.132-.792-.4-.792-.66l.264.132c-.264-.132-.924-.792-.792-.264L86,222.936l-3.7,1.188a28.487,28.487,0,0,0,5.281,3.564c.528.264,1.056.66,1.716,1.056.528.4,1.188.792,1.716,1.188a13.184,13.184,0,0,0,1.848,1.056l1.98.792c.528.132.132-.264.66-.132.66.264-.132.264.132.4a9.212,9.212,0,0,1,2.244.792,4.687,4.687,0,0,1,1.188.528c.4.132.792.264,1.32.4.264,0,.66,0,.66-.132a4.719,4.719,0,0,0,1.452.528,6.691,6.691,0,0,0,1.716.264c.528.132,1.188.132,1.716.264a6.632,6.632,0,0,1,1.584.264c-.264-.4,0-.4.4-.4a5.329,5.329,0,0,0,1.452,0c.4,0,.4.264.264.4H112.4a4.954,4.954,0,0,1,1.32.132,8.777,8.777,0,0,1,1.981-.4,4.1,4.1,0,0,0,1.452.132,7.883,7.883,0,0,1,1.584-.264c-.132-.132.132-.4.4-.528a4.749,4.749,0,0,1,1.452-.264l-.264.528a3.858,3.858,0,0,1,1.188-.264,4.7,4.7,0,0,1,1.32-.264,4.694,4.694,0,0,1,1.32-.264c.4-.132.924-.264,1.32-.4.264,0,.4-.132.66-.132h.4l.4-.132a3.946,3.946,0,0,0,1.32-.528,6.171,6.171,0,0,0,1.32-.66c.4-.264.792-.4,1.188-.66l.4.132a15.065,15.065,0,0,1,2.509-1.32c.4-.264.792-.4,1.188-.66a5.342,5.342,0,0,1,1.188-.66,17.339,17.339,0,0,0,4.225-3.3,21.086,21.086,0,0,0,2.772-1.98c.792-1.056,1.188-1.32,1.452-2.244a.983.983,0,0,1,.924-.4c.264-.264.66-.528.924-.792s.66-.528.924-.792a3.691,3.691,0,0,0,1.188-1.716l.264.132a3.3,3.3,0,0,1,.528-.924c.132-.4.4-.66.528-1.056a4.641,4.641,0,0,1,.66-1.056,1.818,1.818,0,0,0,.4-.528l.4-.4c0-.528.66-1.716.132-1.32.264-.528.528-.132.66-.792v.792c.4-.66.792-1.32,1.188-2.112.792-1.716,1.188-2.376,1.452-3.168" transform="translate(-51.805 -126.036)" fill="#181716"/><path d="M.528,54.39l6.337-1.98v-.4a2.232,2.232,0,0,1,.4-1.32,1.173,1.173,0,0,0,.528.66V49.11a14.553,14.553,0,0,0-.264-2.376c.264.264.528.264.528.66a6.631,6.631,0,0,0,.264-1.584,4.063,4.063,0,0,0-.132-1.32c-.528.528.264.132.132.66-.4.264-.66,0-.66-.4a1.267,1.267,0,0,1,.264-1.188h.132a5.948,5.948,0,0,1,.264-1.056v-.528a2.231,2.231,0,0,1,.264-.66c.66-.4,0,.528.4.528,1.056.132,1.584-1.98,1.716-2.112-.132-.264-.132-.66-.4-.792.132-.924.66-.132.924-.66a2.079,2.079,0,0,0-.132-.528,4.084,4.084,0,0,0-.264-1.056,7.612,7.612,0,0,1-.264-1.32c.264.264,1.188-.264,1.056.528a4.77,4.77,0,0,0,.4-2.244c0-.66-.132-1.452-.132-2.112a3.048,3.048,0,0,0,.792-1.188l.66-1.32c.66.132-.264.4,0,.792l1.056-.4c-.528,1.056.924.4.792,1.188a4.025,4.025,0,0,1,1.188-1.716,6.087,6.087,0,0,1,.924-.924c.264-.264.66-.528.924-.792-1.584,0,.792-1.848,0-2.376.924-1.32,1.188,0,1.716-.264a7.353,7.353,0,0,1,.66-1.056c.264-.264.528-.66.792-.924a5.728,5.728,0,0,1,.924-.792l.792-.792.132.264c.264-.264.528-.66.792-.924l.528-.528c.132-.132.4-.264.528-.528a3.563,3.563,0,0,0,.924-1.056,5.338,5.338,0,0,0,.66-1.188c.132.264.264.264.132.66,1.452-.66-.528-1.188,1.188-1.848v.66a2.639,2.639,0,0,1,1.32-1.056,2.319,2.319,0,0,0,1.32-1.188c.132.264,0,.4,0,.66a2.319,2.319,0,0,1,.66-.528,2.884,2.884,0,0,0,.66-.528,3.743,3.743,0,0,0,1.188-1.32c.264.264.264.528,0,.924,1.188-.264.66-1.452,1.716-1.584.264-.132.792,0,.792.132a3.061,3.061,0,0,1,.924-.924,9.275,9.275,0,0,0,1.188-.792c.264.264.66.132,1.452.264,1.32-.528,2.64-1.056,3.96-1.452l1.056-.4.264-.132h.132l.528-.132c.66-.264,1.452-.4,2.112-.66C50.034,7,52.806,6.2,55.579,5.544c1.056.924-1.188.792-.528,1.453-.132-.924.924-.4,2.64-.792l.132.132c.66-.264,1.188.264,1.981,0V6.073c.4-.264.924,0,1.32.132.4.264.792.4,1.056-.264l.66.66A.746.746,0,0,1,63.9,6.337,1.019,1.019,0,0,0,65.084,6.2l-.132.132a3.4,3.4,0,0,0,1.98-.132,1.962,1.962,0,0,1,.792-.132.687.687,0,0,1,.528.264A7.531,7.531,0,0,0,69.968,6.2a1.778,1.778,0,0,0,1.188-.66c.264.4,0,.792-.264,1.056a28.067,28.067,0,0,1,3.3.4c.528.132,1.188.132,1.716.264s1.056.264,1.716.4a29.15,29.15,0,0,0,3.3.66,6.618,6.618,0,0,0,1.584.264c.528.132,1.056.132,1.584.264.132.264-.132.264-.4.4a1.953,1.953,0,0,1,.924.132,6.444,6.444,0,0,0,.924.4l.792.4.4.264.4.264a7.87,7.87,0,0,0,1.452.792,1.675,1.675,0,0,0,.792.132,2.579,2.579,0,0,0,.924-.132l.924-.4c.4.528.132.924.4,1.452.4-.132.792.132,1.32.4a1.714,1.714,0,0,0,1.32.264c0,.4-.264.264-.4.528l.792.4c.264.132.66.132.924.264.66.132,1.32.264,1.584.792l-.528.132c1.98,2.244,4.092,4.621,6.073,7l.132.132,5.809-1.848-.792-.792a6.1,6.1,0,0,1-.924-.924c-.66-.528-1.188-1.188-1.848-1.716L103.5,15.578a19.414,19.414,0,0,0-1.716-1.32c-.528-.4-1.188-.924-1.716-1.32l-.792-.66-.924-.66c-.528-.4-1.188-.924-1.716-1.32-1.188-.792-2.376-1.716-3.565-2.376l-.924-.528-.528-.264-.528-.264L89.243,5.809c-.66-.4-1.32-.66-1.98-1.056l-.924-.528c-.4-.132-.66-.264-1.056-.4A13.336,13.336,0,0,1,83.3,2.9c-.66-.264-1.452-.528-2.112-.792A37.887,37.887,0,0,0,72.477.264c.528.4-.132.792-.792.792L71.553.792l-.528.264L70.5,1.32c-.924,0-.4-.792.4-.792C68.516.264,66.272.132,64.16,0H59.143a7.531,7.531,0,0,0-1.716.132c-.132.4-.66.528-1.32.528-.528,0-1.056.132-1.188.66-.264-.132,0-.264.132-.4-.792.264-1.32.4-1.848.528a5.732,5.732,0,0,0-.66.132c-.264,0-.4.132-.66.132h-1.32c-.264,0-.528-.132-.792-.132a1,1,0,0,1-.528-.132.792.792,0,0,1-.528-.132l-2.376.4H45.81l-.792.132-1.056.264-1.056.264h-.264l-.264.264-.528.132a14.448,14.448,0,0,1-2.244.66c-.66.264-1.452.528-2.112.792l-1.056.4-1.056.528c-.66.264-1.452.66-2.112.924-.66.4-1.32.66-1.98,1.056a57.873,57.873,0,0,0-7.657,4.884c-.264.264-.66.4-.924.66l-.924.66c-.528.528-1.188.924-1.716,1.452a16.733,16.733,0,0,1-1.716,1.452l-.792.792-.792.792-.792.792a5.747,5.747,0,0,0-.792.924c-.528.528-1.056,1.188-1.584,1.716L12.146,23.1l-.4.4-.4.528-.66.924-.66.924c-.264.264-.4.66-.66.924L8.185,28.779,7,30.76c-.132.132-.132.4-.264.528l-.264.528-.528,1.056-.528,1.32a3.939,3.939,0,0,1-.528,1.056c-.264.66-.66,1.452-.924,2.112s-.528,1.452-.792,2.112c-.132.4-.264.66-.4,1.056l-.4,1.056C1.452,44.489.66,47.525,0,50.562a7.473,7.473,0,0,1,.4,3.432Z" fill="#181716"/><path d="M139.6,187.878c.132.924.264,1.98.4,2.9-.264,1.188-1.056-.264-.792,1.056a3.658,3.658,0,0,0-1.188-.132c.4.264-.528,2.112.66,1.452-.264.792-.528,1.716-.792,2.508-.264.924-.4,1.716-.66,2.64a.554.554,0,0,0-.924-.528,6.692,6.692,0,0,1,.264,1.716,3.112,3.112,0,0,1-.264,1.056c-.132.4-.264.66-.4,1.056.66.264.792-.264,1.452.132a2.813,2.813,0,0,1,0,1.056c-.4,0-.792-.132-1.188-.132a1.238,1.238,0,0,0-1.056.792,1,1,0,0,1,0-1.32c.132-.4.4-.66-.264-.66a2.817,2.817,0,0,1-.132-1.848,6.4,6.4,0,0,1,.4-.924c.132-.264.264-.528.528-.528-.528-1.452-.4.792-1.188.264a5.715,5.715,0,0,1-.132.66v.66a5.151,5.151,0,0,1-.264,1.848c.4.264.66-.264.792.528.132.924-.132,1.188-.528,1.32s-.924.132-.924.264v-.792a1.2,1.2,0,0,0-.4,1.056,2.173,2.173,0,0,1-.264,1.188c-1.32-.4.528-1.452,0-2.112l-1.188.264c-.792,1.32.792.792-.264,2.112l-.4-.4a1.313,1.313,0,0,1-.132.528,1.368,1.368,0,0,1-.132.528.874.874,0,0,0,.792.132c.264,0,.528-.264.66-.66.4.528.4.792.132.924a3.049,3.049,0,0,0-.792,1.188c.4.792.264-.528.924-.264.66.132.264,1.056,0,1.716-.264.528-.528.528-.792.4a.873.873,0,0,0-.792-.132,1,1,0,0,1,.264-.528c.132-.132.264-.264.4-.132,0-.792-.4-.792-.792-.792s-.792,0-.792-.528c-.264.264-.4.4-.4.528a1,1,0,0,0,.132.528.989.989,0,0,1,.132.66c.264-.132.528.528.924.4.4,1.32-.132,1.32-.792,1.32s-1.452-.264-1.716.528c.66.132.66.924.792,1.584s.264,1.188,1.188,1.056a1.985,1.985,0,0,1-.528,1.452c-.4-.924-1.056.264-1.188-.924l-.4.528a1.769,1.769,0,0,0-.132-.66,1.6,1.6,0,0,0-.132-.66,14.234,14.234,0,0,1-2.64.792c-.264.924.792.264.264,1.188-.132-.528-.792-.264-1.056,0,.792-.528.924.792.66,1.32a2.336,2.336,0,0,1-1.056.66c-.4,0-.66,0-.66-.132v-.924c-.132.528-.4-.132-.66.528a19.3,19.3,0,0,0,.792,1.848l-.264.264-.4.132c-.264,0-.4.132-.528.132a1.367,1.367,0,0,0,.132-.528l.132-.4v-.132c-.792,1.056-1.056-.792-1.716.4l.264.66c-.264.132-.4,0-.528-.132,0,.4-.4.792-.528,1.056l-.4-.264c-.132.528,0,1.716-1.056,1.453,1.056.4.528-.4,1.452-.66.924.264-.132,1.188-.264,1.32-.4-.4-.66-.264-.924.132s-.528.924-.792,1.056c-.528-.132-.924,0-1.188-.132l.264.792c-.528-.528-.792-.264-.924.132s-.4.924-.792.924c0-.528-.4-1.056-.924-.924a.76.76,0,0,1,.4,1.056c-.132.4-.264.924,0,1.056-.66.264-.792-.132-.792-.528s0-.924-.4-1.188c-.132,1.056-1.452.264-1.188,1.452.924-.264.264.66.264,1.188-1.056.528-.132-.528-1.056-.4-.4.4-.528,1.452.4,1.32-.4.132-.528.4-.792.792l-.4.4a.99.99,0,0,1-.66.132c-.264-.264,0-.4.264-.66s.528-.4.264-.528a1.561,1.561,0,0,0-.66.66.6.6,0,0,0,0,.66c0,.528.132,1.056-.528,1.452.792,0,.792,1.32.264,2.112-.924.264-.792.132-.528-.264.264-.264.528-.792,0-.924l-.264.264-.264.264c-.66-.264-.4-.924-.132-1.584s.528-1.32-.132-1.452a1.641,1.641,0,0,0-.264.4,1.908,1.908,0,0,0-.264.4c0-.4,0-1.056-.528-1.188.132.792-1.452.924-1.452,1.188.132.66.4-.4.528.132-.66.528-.528,1.716-1.848,1.716.4-.66-.528-.792-.528-1.188-.66,0,.132.792-.792.792v-.4c-.66.264-1.584.528-2.244.792-.264.132-.4.132-.66.264l-.264.132H100a5.52,5.52,0,0,0-1.32.528,13.716,13.716,0,0,1-1.32.528c-.4.132-.66.4-1.056.528a18.906,18.906,0,0,0-1.98,1.452A2.484,2.484,0,0,0,93,235.14a2.58,2.58,0,0,1-.924-.132c-.4,0-.66-.132-1.056-.132.66.132.132.66-.264.792l-.792-.66a.843.843,0,0,0-.792,0,1.872,1.872,0,0,0-.792.264c-.528.264-.924.528-1.453.792a1,1,0,0,1-.264-.528c-.792-.528-.792.528-1.188.66l-.528-.528-.132.528a1.952,1.952,0,0,1-1.188.132c-.4-.132-.66-.4-.528-.792-.264.132-.66.4-.264.66a1.874,1.874,0,0,0-.792-.264,3.657,3.657,0,0,0-1.188-.132,7.977,7.977,0,0,0-2.509,0c.66.264.528.528.66,1.188-.264.924-.264-.132-.924.264,0-.4-.66-.792.132-.924a5.774,5.774,0,0,0-3.3-1.056c-.264,0-.66-.132-.924-.132a2.248,2.248,0,0,1-.924-.132c-.66-.132-1.188-.264-1.848-.4-.528,0-.4.264-.66.4a3.933,3.933,0,0,0-2.376-1.056,7.974,7.974,0,0,1-2.509-.792c.264.528-.66,1.452-1.584,1.056-1.32.4,0-1.188-.66-1.98a3.368,3.368,0,0,1-1.716-.264l.132-.132a1.828,1.828,0,0,1-1.188,0,1.526,1.526,0,0,1-.924-.66h.132c-.528-.264-.792-1.056-1.32-1.188-.528.528-1.584-.528-2.244-.132,0-.132.132-.132,0-.264l-.4.528-.132-.132-.264-.264-.4-.4a2.45,2.45,0,0,1,.924-.264c-.792-1.056-.66.264-1.32.264-.924-.132-.66-.528-.792-1.056.528-.132.4.4.66.528.66-.132-.4-.4-.132-.792a.485.485,0,0,0-.4.132c-.132.132-.4.132-.66-.132-.4-.4-1.584-.924-1.056-1.452a1.677,1.677,0,0,1-.792-.132,1.187,1.187,0,0,0-.66-.132,2.884,2.884,0,0,1,.528.66c.132.264.264.528.132.66-.132-.132-.528-.132-.66-.4-.264-.132-.4-.264-.4-.528h.4c-.4,0-1.188-.924-1.056-.132l-.132-1.188a1.158,1.158,0,0,1-.924-.132c-.264-.132-.66-.4-.924-.528.4-.528,1.32-.792.528-1.716a2.313,2.313,0,0,1-.66-.132,2.688,2.688,0,0,1-.66-.132c-.528-.4-.528-.528-.132-.792a2.074,2.074,0,0,0-1.981-.792c-.66,0-1.188,0-1.584-.792,1.056-.132.792-.528.4-1.188-.132.132-.4.264-.528,0-.132.4.66-.132.66.66-.264.528-.66-.264-1.056-.4v-.924l-7.921,2.508.264.4a4.55,4.55,0,0,0,1.188,1.056l-.264.132a75.875,75.875,0,0,0,6.469,6.6,38.55,38.55,0,0,0,7.789,5.281c.4.264.792.4,1.188.66a7.346,7.346,0,0,1,1.056.792,25.391,25.391,0,0,1,2.244,1.716,15.541,15.541,0,0,0,2.509,1.453,11.413,11.413,0,0,0,2.772.924c.792,0,.4-.528.924-.4.924.4-.132.4.132.792a8.925,8.925,0,0,1,3.036.924l1.584.792a8.542,8.542,0,0,0,1.716.528c.4-.132,1.056-.132.924-.528a6.9,6.9,0,0,0,1.98.924c.792.132,1.453.264,2.244.4s1.584.132,2.376.264a9.92,9.92,0,0,1,2.112.528c-.4-.792,0-.924.66-.924a9.882,9.882,0,0,0,1.98,0c.528.132.528.528.4.66h2.244a5.923,5.923,0,0,1,1.452.132c.528,0,1.056.132,1.716.132,1.056-.132,1.32-.924,2.64-.792a2.168,2.168,0,0,0,1.848.264,6.921,6.921,0,0,1,2.244-.264c-.264-.4,0-.792.528-1.056a2.947,2.947,0,0,1,1.848-.4l-.132,1.188c.528-.132,1.056-.4,1.584-.528s1.188-.264,1.716-.4c.66-.132,1.188-.264,1.848-.4.528-.132,1.188-.264,1.716-.4a8.432,8.432,0,0,1,.924-.264h.264l.264-.132.528-.132c.66-.264,1.188-.4,1.848-.66a7.112,7.112,0,0,0,1.716-.924c.528-.4,1.056-.66,1.584-1.056l.66.528,3.168-1.98c.528-.264,1.056-.66,1.584-.924s1.056-.66,1.584-.924a21.2,21.2,0,0,0,5.545-4.753,15.485,15.485,0,0,0,3.96-2.509c.924-1.584,1.32-1.98,1.584-3.432.4-.528,1.056-.4,1.452-.4.4-.4.792-.66,1.188-1.056a9.319,9.319,0,0,0,1.188-.924,6.618,6.618,0,0,0,.924-1.056,3.957,3.957,0,0,0,.528-1.32l.528.264a10.008,10.008,0,0,1,.528-1.453,7.079,7.079,0,0,1,.66-1.452c.264-.528.528-.924.792-1.452a2.318,2.318,0,0,1,.528-.66l.528-.528c-.132-.792.66-2.509-.4-2.112.264-.66,1.056.132.924-.924a1.364,1.364,0,0,1,.132.528l.132.4v.132l1.584-2.772,1.188-2.772c.264-.924.66-1.848.924-2.772s.528-1.98.792-2.9c.66-.4.924-1.32,1.188-2.509.132-.528.264-1.188.4-1.716a8.425,8.425,0,0,0,.264-.924c.132-.264.132-.528.264-.792v-1.188c.132-.4.132-.924.264-1.32a2.909,2.909,0,0,0-.4-2.376h.528c.132-.924.264-1.98.528-3.168v-.4Z" transform="translate(-21.978 -117.514)" fill="#181716"/><path d="M115.522,48.5l-.66-.528-.66-.528c-.4-.264-.924-.66-1.32-.924a38.385,38.385,0,0,0-5.544-3.3,36.93,36.93,0,0,0-12.41-3.961c.4.264-.132.4-.528.264l-.132-.132a1.023,1.023,0,0,0-.4.132,1.332,1.332,0,0,0-.4.132c-.66,0-.4-.4.264-.4a51.021,51.021,0,0,0-10.033-.264c-.132.264-.528.264-.924.264a1.539,1.539,0,0,0-.924.264c-.132,0,0-.132,0-.132a6.819,6.819,0,0,1-1.452.264.793.793,0,0,0-.528.132l-.4.132H77.105c-.528.132-1.188.264-1.716.4-.264,0-.528.132-.792.132l-.792.264-.792.264h-.528l-.4.132c-.528.132-1.056.4-1.584.528a8.076,8.076,0,0,0-1.584.66l-.792.264-.792.4a8.082,8.082,0,0,1-1.584.66L64.3,44.4a37.969,37.969,0,0,0-5.677,3.7l-.66.528-.66.528c-.4.4-.924.66-1.32,1.056a5.181,5.181,0,0,1-1.32,1.056l-1.188,1.188-.66.66a2.319,2.319,0,0,0-.528.66A11.914,11.914,0,0,0,51.1,55.1l-1.056,1.32c-.132.264-.4.4-.528.66l-.528.66-.528.66a1.317,1.317,0,0,1-.528.66c-.264.528-.66.924-.924,1.452l-.924,1.453-.4.792-.4.792-.4.792-.4.792a8.074,8.074,0,0,0-.66,1.584c-.264.528-.4,1.056-.66,1.584a7.426,7.426,0,0,0-.528,1.584c-.528,1.452-.924,2.9-1.32,4.357l3.432-1.056.4-.132a3.566,3.566,0,0,0,.132-1.584c-.264.528.132.132,0,.4-.264.264-.264.132-.264-.132a2.451,2.451,0,0,1,.264-.924c.132-.4.132-.66.264-.792,0-.264.132-.4.264-.792.4-.4-.132.4.132.264.528,0,1.056-1.584,1.188-1.716,0-.264,0-.528-.132-.528.132-.66.4-.132.528-.528V64.866c.132.132.66-.264.528.264.264-.66.4-1.188.528-1.584.132-.528.132-.924.264-1.32a8.423,8.423,0,0,0,1.056-1.848c.264,0-.264.264-.132.528l.66-.4c-.528.792.4.132.264.66a6.086,6.086,0,0,1,.924-1.32c.264-.264.4-.528.66-.792l.66-.66c-.924.264.66-1.32.4-1.584.792-1.056.66-.264,1.056-.528a3.5,3.5,0,0,1,.66-.792l.66-.66.66-.66.66-.66v.132c.132-.264.4-.4.66-.66l.4-.4.4-.4a11.975,11.975,0,0,0,1.32-1.452c0,.132.132.132,0,.4,1.056-.528-.132-.66,1.056-1.188l-.132.4c.528-.66,1.452-.792,2.112-1.584l-.132.4c.132-.132.4-.264.528-.4s.4-.264.528-.4a3.083,3.083,0,0,0,.924-.924c.132.132.132.264-.132.528.792-.264.66-.792,1.452-1.056.132-.132.528-.132.528,0a4.663,4.663,0,0,1,1.716-1.056c.132.132.528,0,1.056,0,1.056-.4,1.98-.792,3.037-1.188l.792-.264.4-.132.4-.132,1.584-.528c2.112-.528,4.225-1.056,6.469-1.584.792.4-.924.4-.528.66-.132-.4.66-.264,1.98-.4.528-.132.924.132,1.452,0v-.132c.66-.264,1.452.528,1.716,0l.528.264c.66-.4,1.056.132,1.848-.132l-.132.132c1.056.264,2.244-.4,2.64.132.924,0,1.98.132,2.112-.264.132.132,0,.4-.132.528a16.479,16.479,0,0,1,2.509.4c.4.132.924.132,1.32.264a3.9,3.9,0,0,0,1.32.264c1.716.4,3.3.924,4.885,1.188l-.264.132a3.869,3.869,0,0,1,1.32.4c.4.264.792.4,1.188.66a4.26,4.26,0,0,0,2.376.792h.66c.264.4.132.528.4.792.4,0,1.452.792,1.848.66.132.264-.132.132-.264.264a1,1,0,0,0,.528.264c.264.132.4.132.66.264a3.464,3.464,0,0,1,1.188.66h-.264a23.612,23.612,0,0,0,1.848,1.716l2.509-.792-1.056-.792a1.329,1.329,0,0,0-.66-1.452" transform="translate(-26.015 -24.469)" fill="#181716"/><path d="M80.163,140.656c.132-.66.264-1.056.4-1.584,4.093-13.862,8.317-27.592,12.409-41.453a2.92,2.92,0,0,1,1.98-2.112,47.269,47.269,0,0,0,4.621-1.452c1.056-.4,1.584,0,1.848,1.056,1.848,5.941,3.7,11.882,5.545,17.69.132.528.66.924,1.056,1.452a10.053,10.053,0,0,0,1.056-1.452l6.337-22.179a2.384,2.384,0,0,1,1.98-2.112c1.188-.264,2.376-.792,3.432-1.056,1.848-.66,1.848-.66,2.509,1.32l3.96,12.674c1.452,4.753,3.036,9.505,4.488,14.258.4,1.188.792,1.32,1.981.924,2.376-.792,4.884-1.584,7.393-2.376a2.1,2.1,0,0,0,1.716-1.848c3.3-11.221,6.733-22.575,10.033-33.8a2.691,2.691,0,0,1,1.98-2.112c2.376-.66,4.753-1.452,7.129-2.244a1.541,1.541,0,0,1,1.981.66,61.75,61.75,0,0,1,10.693,34.456,1.448,1.448,0,0,1-1.056,1.584c-1.848.528-3.7,1.056-5.412,1.584a1,1,0,0,1-.528-.132,55.075,55.075,0,0,0-8.317-31.552c-.264.792-.528,1.32-.66,1.848-3.3,11.485-6.469,23.1-9.637,34.588a2.384,2.384,0,0,1-1.98,2.112c-5.941,1.716-11.749,3.564-17.558,5.545-1.188.4-1.584.132-1.981-1.056-2.112-6.733-4.224-13.6-6.337-20.33l-.4-1.188a.677.677,0,0,0-1.32,0l-.4,1.188c-2.377,8.449-4.885,16.9-7.261,25.479a2.705,2.705,0,0,1-1.98,2.112c-3.565,1.056-3.565,1.056-4.621-2.508-1.98-6.073-3.828-12.277-5.809-18.35-.132-.528-.66-.924-.924-1.452a11.5,11.5,0,0,0-1.188,1.452c-2.508,8.449-5.016,17.03-7.525,25.479a3.125,3.125,0,0,1-2.376,2.376c-2.64.924-4.753,1.716-7.261,2.508" transform="translate(-50.459 -46.661)" fill="#181716"/><path d="M7.576,150.076C7.18,160.9,9.425,170.8,15.1,180.043c.132-.528.4-1.056.528-1.584,3.168-10.825,6.337-21.651,9.505-32.344a2.4,2.4,0,0,1,1.848-1.981q2.97-.792,6.337-1.98a14.674,14.674,0,0,0-.4,1.716C28.963,157.6,25,171.2,21.174,184.928a2.539,2.539,0,0,1-1.98,1.98c-2.112.528-4.093,1.188-6.073,1.848a1.3,1.3,0,0,1-1.716-.528A57.1,57.1,0,0,1,2.164,167.37C1.24,163.013.976,158.393.316,153.9c-.132-1.188.264-1.716,1.452-1.98,1.848-.528,3.7-1.056,5.809-1.848" transform="translate(-0.183 -89.481)" fill="#181716"/></g></svg>