<?xml version="1.0" encoding="UTF-8"?>
<svg id="WPL_icon" data-name="WPL icon" xmlns="http://www.w3.org/2000/svg" xmlns:xlink="http://www.w3.org/1999/xlink" viewBox="0 0 40 40">
  <defs>
    <style>
      .cls-1, .cls-2, .cls-3 {
        stroke-width: 0px;
      }

      .cls-2 {
        fill: #549f62;
      }

      .cls-3 {
        fill: #fffefe;
      }

      .cls-4 {
        filter: url(#drop-shadow-1);
      }
    </style>
    <filter id="drop-shadow-1" filterUnits="userSpaceOnUse">
      <feOffset dx=".5" dy=".5"/>
      <feGaussianBlur result="blur" stdDeviation="0"/>
      <feFlood flood-color="#000" flood-opacity=".75"/>
      <feComposite in2="blur" operator="in"/>
      <feComposite in="SourceGraphic"/>
    </filter>
  </defs>
  <circle class="cls-2" cx="20" cy="20" r="20"/>
  <g class="cls-4">
    <g>
      <path class="cls-3" d="m9.5,33.84C3.94,27.35,1.45,14.68,7.72,7.72c.52-.52.8-.77,1.37-1.24-2.95,4.06-3.64,7.2-3.01,13.84.07.74.16,1.51.28,2.28.12.78.27,1.56.45,2.35.18.79.36,1.51.55,2.16.19.66.36,1.19.5,1.6-.13-.04-.19-.06-.32-.09-.23-.88-.41-1.76-.54-2.65-.12-.88-.2-1.79-.23-2.73-.03-.93,0-1.89.09-2.87.49-5.07,1.33-7.67,3.25-12.11.61-.21.92-.31,1.55-.49-.72,4.33-.71,7.02-.09,12.59.13,1.19.28,2.34.44,3.47s.33,2.17.49,3.14c.16.97.31,1.86.45,2.67-.12.04-.18.06-.3.09-.06-.52-.12-1.06-.17-1.62-.05-.55-.09-1.14-.13-1.77-.03-.62-.05-1.25-.05-1.89,0-.64,0-1.31.03-2.02.03-.71.07-1.43.12-2.17.64-7.52,1.58-11.3,3.26-17.1.71-.18,1.08-.25,1.82-.36-1.92,11.14-4.04,22.47-2.52,33.84-.54-.16-.81-.25-1.33-.46-2.77-6.61-4.31-11.45-4.62-19.44.12.03.18.05.3.08-1.45,8.13-1.26,12.63,1.34,17.85-.49-.31-.74-.48-1.2-.83Z"/>
      <path class="cls-3" d="m19.25,37.35c-.24-11.6-.24-23.11,0-34.71,1.58-.07,2.4,0,3.92.27.49.09.99.59,1.55,1.51.56.92,1.13,2.15,1.66,3.76.53,1.61.95,3.45,1.14,5.6.21,2.28.12,4.41-.19,6.34-.32,1.93-.81,3.44-1.39,4.55-.58,1.11-1.21,1.68-1.88,1.71-.99.05-1.5.06-2.52.08-.08,4.79-.16,7.05-.37,10.86-.76.05-1.16.06-1.92.02Zm2.29-18.95c.91,0,1.36,0,2.25.02.26,0,.5-.2.71-.61.22-.41.38-.97.49-1.66.11-.7.14-1.49.09-2.38-.05-.88-.17-1.62-.34-2.23-.17-.6-.37-1.07-.6-1.41-.23-.34-.46-.52-.69-.54-.81-.06-1.22-.08-2.04-.11.09,3.35.12,5.17.14,8.92Z"/>
      <path class="cls-3" d="m27.67,35.59c3.89-9.01,3.89-22.17,0-31.18.65.32.97.5,1.58.88,4.2,7.45,5,14.6,2.35,23.73,1.71-.48,2.52-.76,4.01-1.39-1.02,2.07-1.71,3.03-3.32,4.64s-2.55,2.29-4.62,3.31Z"/>
    </g>
  </g>
  <g>
    <path class="cls-1" d="m4.03,12.59c-.39-1.6-.46-2.28.03-3.34.44-.31.67-.45,1.17-.73-.26.91-.25,1.44-.09,2.6-.1.02-.15.04-.25.06.96-1.23,1.46-1.84,2.5-3.09.38-.13.58-.19.98-.31.29.87.51,1.35,1.02,2.39-.12.03-.18.04-.29.07.97-1.57,1.49-2.34,2.53-3.92.64-.13.96-.19,1.61-.29-1.44,2.21-2.18,3.28-3.53,5.48-.48.06-.72.09-1.19.16-.6-1.21-.86-1.77-1.19-2.77.19-.07.29-.1.49-.16-1.14,1.44-1.7,2.15-2.73,3.58-.43.1-.64.16-1.05.27Z"/>
    <path class="cls-1" d="m17.97,11.19c-.84-.01-1.58-.13-2.21-.36-.63-.23-1.1-.54-1.41-.93-.31-.39-.42-.84-.34-1.37.07-.43.23-.82.49-1.18.26-.36.59-.68.98-.96.39-.28.83-.5,1.31-.67.48-.16.99-.25,1.52-.26.48,0,.91.06,1.31.2.4.15.74.35,1.04.61.29.26.58.57.79.92.21.35.3.73.29,1.13-.01.2-.02.3-.03.49-3.05-.24-3.89-.23-6.51-.09-.08-.34-.12-.52-.19-.86,2.16-.15,3.25-.16,5.27-.05-.08.06-.12.09-.21.15,0-.09,0-.14.01-.23-.02-.22-.12-.42-.3-.59-.17-.17-.4-.31-.67-.41-.27-.1-.57-.15-.91-.15-.47,0-.89.08-1.26.21-.37.13-.67.33-.9.59-.23.25-.37.57-.42.96-.04.35.04.64.25.89.21.25.53.44.94.58.42.14.91.21,1.48.22.49,0,.9-.03,1.25-.12.35-.09.67-.21.96-.37.28.38.44.57.8.95-.32.14-.65.26-1,.37-.35.11-.73.19-1.13.24-.4.06-.81.08-1.22.07Z"/>
    <path class="cls-1" d="m24.85,11.58c.05-2.2.04-3.29-.11-5.54.66.1.99.16,1.61.29.09.76.13,1.14.19,1.89-.14-.13-.21-.19-.35-.32.1-.3.27-.56.52-.76.25-.21.54-.35.86-.42.32-.07.65-.06,1,.05.2.06.39.13.59.23.19.09.35.19.47.28-.05.51-.08.76-.17,1.26-.14-.11-.3-.2-.49-.29-.19-.09-.38-.16-.57-.21-.27-.07-.51-.09-.73-.06-.22.03-.42.09-.58.19-.16.1-.29.23-.38.38-.09.15-.13.32-.12.52.05,1.12.06,1.68.05,2.79-.7-.12-1.06-.17-1.79-.26Z"/>
    <path class="cls-1" d="m32.45,13.19c-.16-2.84-.39-4.29-1.48-7.46.47.23.69.35,1.13.6,1.26,3.13,1.54,4.54,1.76,7.31-.56-.19-.84-.28-1.42-.45Zm1.14-1c-.14-.47-.22-.71-.38-1.18,1.13-.5,1.6-.7,2.23-1,.6.4.89.61,1.46,1.04-.75.23-1.49.46-3.31,1.15Zm3.46,2.66c-1.11-1.29-1.68-1.98-2.85-3.39.31-.12.45-.18.72-.29,1.55,1.86,2.29,2.76,3.76,4.39-.64-.3-.97-.44-1.63-.72Z"/>
    <path class="cls-1" d="m4.98,26.2c-.93-2.65-1.1-4.22-1.06-7.32.61-.07.92-.1,1.55-.15,0,.51.02.77.04,1.29-.11-.03-.17-.05-.29-.08.06-.22.22-.44.5-.66.27-.22.62-.41,1.03-.56.41-.16.85-.25,1.32-.28.72-.04,1.35.05,1.89.29.54.24.96.6,1.27,1.04.3.44.47.9.47,1.53,0,.63-.13,1.17-.4,1.63-.27.46-.66.81-1.15,1.05-.5.24-1.07.35-1.73.34-.47,0-.91-.08-1.34-.21-.43-.13-.79-.3-1.1-.49-.31-.19-.51-.39-.6-.59.14-.06.21-.09.36-.15.2,1.44.36,2.11.76,3.4-.6-.04-.91-.05-1.51-.09Zm2.95-3.01c.45,0,.83-.08,1.15-.23.32-.15.57-.37.75-.65.18-.28.27-.6.26-.98,0-.37-.12-.65-.32-.91-.2-.26-.47-.45-.82-.59-.34-.14-.75-.2-1.22-.18-.45.02-.85.12-1.2.3-.34.17-.61.39-.79.65-.18.27-.26.55-.23.89.02.34.15.63.36.88.22.25.5.45.86.59.35.14.75.21,1.19.21Z"/>
    <path class="cls-1" d="m14.49,24.37c-.18-3.3-.03-5.16.19-8.39.7,0,1.05,0,1.75,0-.22,3.24-.39,5.1-.29,8.43-.66-.02-.99-.02-1.65-.04Z"/>
    <path class="cls-1" d="m23.18,24.72c-.88-.03-1.69-.19-2.41-.48-.72-.29-1.21-.67-1.56-1.16-.35-.49-.51-1.05-.47-1.71.03-.54.14-.9.38-1.27s.55-.7.94-.96c.39-.26.94-.46,1.53-.58.6-.12,1.22-.16,1.87-.11.59.04,1.12.15,1.6.33s.88.41,1.21.68c.33.27.57.59.72.93.15.34.2.7.15,1.09-.03.19-.05.33-.08.56-2.62-.18-4.43-.26-7.09-.31-.1-.43-.16-.63-.27-1,2.23.04,3.76.1,6.04.25-.1.06-.14.08-.24.14,0-.09.01-.14.02-.23-.02-.22-.12-.42-.32-.59s-.45-.33-.77-.45c-.32-.12-.68-.2-1.07-.22-.55-.03-1.06,0-1.5.12-.44.11-.79.3-1.05.55-.26.25-.38.51-.41.99-.03.43.09.8.35,1.12.26.31.64.56,1.11.74.47.18,1.02.29,1.62.31.52.02.96-.01,1.34-.11.38-.1.72-.23,1.05-.42.28.43.41.64.68,1.05-.28.16-.6.3-.96.42-.36.12-.75.21-1.17.26-.41.06-.83.08-1.26.06Z"/>
    <path class="cls-1" d="m29.43,24.94c.47-3.22.75-4.87.99-7.76.62.11.93.17,1.54.28-.23,2.81-.52,4.4-1.05,7.57-.58-.04-.88-.05-1.47-.09Zm1.61-1.58c0-.54,0-.82,0-1.4,1.7-1.17,2.46-1.28,4.01-1.94.8.14,1.2.21,2,.36-2.28.83-3.51,1.4-6,2.98Zm3.26,1.86c-.84-1.1-1.27-1.72-2.16-3.09.48-.32.7-.38,1.16-.6,1.24,1.36,1.74,2.43,2.82,3.77-.73-.03-1.09-.04-1.81-.08Z"/>
    <path class="cls-1" d="m6.89,32.99c-1.86-1.87-2.76-2.86-4.07-5.1.58.08.87.11,1.44.18,1.25,2.35,2.11,3.4,3.85,5.4-.48-.19-.72-.29-1.22-.49Z"/>
    <path class="cls-1" d="m12.64,35.16c-.52-.16-1.03-.41-1.56-.73-.52-.32-1.01-.68-1.46-1.06-.45-.38-.81-.77-1.06-1.16-.21-.33-.31-.6-.31-.84,0-.23.1-.42.28-.57.18-.15.45-.25.79-.3.35-.05.76-.04,1.22.02.42.06.84.17,1.24.33s.77.36,1.1.6c.33.24.61.51.83.81.22.3.37.62.46.95.04.17.06.25.11.41-1.89-.29-2.79-.5-4.69-.99-.25-.29-.37-.44-.62-.73,1.64.38,2.43.54,4.06.8-.05.04-.07.06-.12.1-.03-.08-.04-.11-.07-.19-.09-.18-.23-.36-.43-.52-.2-.16-.43-.3-.7-.42-.26-.12-.53-.2-.81-.24-.38-.06-.7-.07-.94-.03-.24.04-.39.15-.44.31-.05.16,0,.39.17.69.15.27.37.53.65.77.28.24.59.46.94.66.35.19.71.34,1.09.44.33.08.59.11.8.08.21-.03.39-.09.55-.2.31.33.46.5.76.84-.14.1-.3.17-.49.22s-.4.07-.63.05c-.23-.01-.47-.06-.73-.14Z"/>
    <path class="cls-1" d="m16.69,35.98c-.26-1.89-.46-2.81-.79-4.77.55.04.82.06,1.38.09.1.67.14,1,.23,1.65-.12-.09-.18-.14-.3-.24.06-.27.19-.52.4-.74.21-.22.47-.39.78-.52s.64-.18,1-.17c.2,0,.4.02.6.06s.36.08.48.13c-.16.5-.23.74-.37,1.23-.13-.06-.28-.11-.46-.15-.18-.04-.35-.06-.53-.06-.25,0-.47.02-.67.08-.2.06-.36.15-.49.26-.13.11-.23.24-.29.38s-.08.3-.06.47c.11.98.16,1.46.23,2.44-.47-.04-.69-.07-1.14-.13Z"/>
    <path class="cls-1" d="m24.57,36.18c-.56.05-1.04-.03-1.46-.22-.43-.19-.77-.47-1.02-.84-.25-.36-.38-.78-.35-1.25.02-.39.12-.74.32-1.05s.47-.58.81-.8c.34-.22.74-.4,1.18-.52.45-.12.92-.18,1.41-.19.44,0,.84.05,1.19.16.35.11.63.25.85.44.22.19.36.41.42.67s.03.54-.08.86c-.06.16-.09.24-.15.4-1.85.2-2.78.24-4.93.27-.07-.31-.11-.46-.2-.77,1.88-.01,2.71-.03,4.34-.14-.08.06-.12.08-.2.14.02-.08.03-.11.05-.19.02-.18-.03-.33-.15-.46s-.3-.23-.52-.3c-.22-.07-.48-.11-.77-.1-.41,0-.77.06-1.1.17-.32.11-.58.27-.78.49-.19.22-.3.5-.34.83-.03.31.03.57.19.79s.38.39.67.5c.29.11.64.15,1.04.12.34-.02.65-.09.92-.2.27-.11.53-.24.79-.41.12.27.17.4.25.66-.23.16-.48.3-.75.44-.27.13-.54.25-.82.33-.28.09-.55.14-.83.17Z"/>
    <path class="cls-1" d="m28.68,35.44c1.03-1.74,1.38-2.53,1.98-4.24.5-.04.75-.07,1.26-.12-.15.39-.22.58-.39.95-.14.05-.21.07-.35.11.18-.2.42-.4.71-.6.3-.2.63-.37.99-.51.37-.15.73-.25,1.1-.3.49-.07.88-.08,1.16-.02.28.06.43.17.46.35.03.18-.07.4-.3.69-.64.81-1.01,1.21-1.87,2.09-.5.21-.74.3-1.21.48.78-.88,1.11-1.29,1.69-2.12.13-.19.18-.33.16-.43-.02-.1-.12-.17-.28-.2-.16-.03-.38-.02-.64.03-.22.04-.44.1-.66.19-.21.09-.41.18-.59.3-.18.11-.34.24-.46.36-.13.13-.22.25-.29.37-.48.92-.75,1.38-1.4,2.34-.22.06-.32.09-.54.15-.13.04-.24.06-.33.09-.09.02-.16.04-.2.05Z"/>
  </g>
</svg>