<svg xmlns="http://www.w3.org/2000/svg" width="549" height="374.622" viewBox="0 0 549 374.622"><g transform="translate(-259 -1926)"><path d="M172.5,0C274.907,0,357.925,83.018,357.925,185.425H172.5Z" transform="translate(299.888 1928.612)" fill="#ec8d32"/><path d="M185.425,357.925C83.018,357.925,0,274.907,0,172.5H185.425Z" transform="translate(286.948 1941)" fill="#accf97"/><g transform="translate(286.965 1928.271)"><path d="M169.667,362.876a184.3,184.3,0,0,0,130.367-53.791" transform="translate(16.3 7.972)" fill="none" stroke="#181716" stroke-miterlimit="10" stroke-width="3"/><path d="M271.761,166.669c102.4,0,185.424,83.021,185.424,185.424l-185.424,0H86.337A185.429,185.429,0,0,0,271.761,537.521V166.673" transform="translate(-86.337 -166.669)" fill="none" stroke="#181716" stroke-miterlimit="10" stroke-width="3"/><path d="M0,0C102.4,0,185.424,83.021,185.424,185.424" transform="translate(0 185.424) rotate(-90)" fill="none" stroke="#181716" stroke-miterlimit="10" stroke-width="3"/></g><text transform="translate(458 1984)" fill="#181716" font-size="30" font-family="Lexend Exa" font-weight="300"><tspan x="-69.48" y="0">web</tspan><tspan x="-80.43" y="38">type</tspan><tspan x="-105.84" y="76">brand</tspan><tspan x="-126.69" y="114">motion</tspan></text><text transform="translate(483 2153)" fill="#181716" font-size="30" font-family="Lexend Exa" font-weight="300"><tspan x="0" y="0">capture</tspan><tspan x="0" y="38">editing</tspan><tspan x="0" y="76">titles</tspan><tspan x="0" y="114">VFX</tspan></text><text transform="translate(515 1928) rotate(90)" fill="#fffefe" font-size="36" font-family="Josefin Sans"><tspan x="38.32" y="27">DESIGN</tspan></text><text transform="translate(431 2270) rotate(-90)" fill="#fffefe" font-size="36" font-family="Josefin Sans" letter-spacing="0.066em"><tspan x="14.2" y="27">VIDEO</tspan></text><line x2="23.648" transform="translate(263.837 2113.697)" fill="none" stroke="#181716" stroke-width="3"/><ellipse cx="6" cy="7" rx="6" ry="7" transform="translate(595 2092)" fill="#181716"/><circle cx="7" cy="7" r="7" transform="translate(612 2092)" fill="#181716"/><ellipse cx="6" cy="7" rx="6" ry="7" transform="translate(632 2092)" fill="#181716"/><g transform="translate(259 1927)" fill="#fffefe"><path d="M 46.87178039550781 371.5 L 1.49997878074646 371.5 L 1.49997878074646 1.5 L 46.87178039550781 1.5 L 46.87178039550781 371.5 Z" stroke="none"/><path d="M 2.999977111816406 3 L 2.999977111816406 370 L 45.37178039550781 370 L 45.37178039550781 3 L 2.999977111816406 3 M -2.288818359375e-05 0 L 48.37178039550781 0 L 48.37178039550781 373 L -2.288818359375e-05 373 L -2.288818359375e-05 0 Z" stroke="none" fill="#181716"/></g><text transform="translate(261 2299) rotate(-90)" fill="#ec8d32" font-size="30" font-family="Lexend Exa" letter-spacing="0.16em"><tspan x="42.89" y="30">Heleen Evers</tspan></text><text transform="translate(808 2256)" fill="#181716" font-size="14" font-family="Lexend Exa"><tspan x="-156.674" y="0">A LOGO-INSPIRED</tspan><tspan x="-181.664" y="18" xml:space="preserve"> DIAGRAM SHOWING </tspan><tspan x="-201.474" y="36">MY AREAS OF INTEREST</tspan></text></g></svg>